<?xml version="1.0" encoding="UTF-8"?>
<svg id="OBJECTS" xmlns="http://www.w3.org/2000/svg" version="1.1" xmlns:xlink="http://www.w3.org/1999/xlink" viewBox="0 0 350 370">
  <!-- Generator: Adobe Illustrator 29.3.1, SVG Export Plug-In . SVG Version: 2.1.0 Build 151)  -->
  <defs>
    <style>
      .st0 {
        fill: url(#radial-gradient20);
      }

      .st1 {
        fill: #53266a;
      }

      .st2 {
        fill: url(#radial-gradient10);
      }

      .st3 {
        fill: url(#radial-gradient11);
      }

      .st4 {
        fill: url(#radial-gradient);
      }

      .st5 {
        fill: url(#radial-gradient21);
      }

      .st6 {
        fill: url(#radial-gradient19);
      }

      .st7 {
        fill: #d6c7e1;
      }

      .st8 {
        fill: url(#radial-gradient5);
      }

      .st9 {
        fill: url(#radial-gradient1);
      }

      .st10 {
        fill: url(#radial-gradient7);
      }

      .st11 {
        fill: url(#radial-gradient18);
      }

      .st12 {
        fill: url(#radial-gradient14);
      }

      .st13 {
        fill: url(#radial-gradient13);
      }

      .st14 {
        fill: #ef9292;
      }

      .st15 {
        fill: url(#radial-gradient8);
      }

      .st16 {
        fill: url(#radial-gradient12);
      }

      .st17 {
        fill: url(#radial-gradient17);
      }

      .st18 {
        fill: url(#radial-gradient6);
      }

      .st19 {
        fill: url(#radial-gradient2);
      }

      .st20 {
        fill: url(#radial-gradient15);
      }

      .st21 {
        fill: url(#radial-gradient4);
      }

      .st22 {
        fill: url(#radial-gradient3);
      }

      .st23 {
        fill: url(#radial-gradient9);
      }

      .st24 {
        fill: url(#radial-gradient16);
      }
    </style>
    <radialGradient id="radial-gradient" cx="151.9" cy="237.6" fx="151.9" fy="237.6" r="21.4" gradientTransform="translate(0 470) scale(1 -1)" gradientUnits="userSpaceOnUse">
      <stop offset="0" stop-color="#fff"/>
      <stop offset="1" stop-color="#fff"/>
    </radialGradient>
    <radialGradient id="radial-gradient1" cx="213.7" cy="304.9" fx="213.7" fy="304.9" r="36" gradientTransform="translate(0 470) scale(1 -1)" gradientUnits="userSpaceOnUse">
      <stop offset="0" stop-color="#fff"/>
      <stop offset="1" stop-color="#fff"/>
    </radialGradient>
    <radialGradient id="radial-gradient2" cx="161.6" cy="246.4" fx="161.6" fy="246.4" r="2.9" gradientTransform="translate(0 470) scale(1 -1)" gradientUnits="userSpaceOnUse">
      <stop offset="0" stop-color="#fff"/>
      <stop offset="1" stop-color="#fff"/>
    </radialGradient>
    <radialGradient id="radial-gradient3" cx="105.9" cy="282.3" fx="105.9" fy="282.3" r="44.5" gradientTransform="translate(0 470) scale(1 -1)" gradientUnits="userSpaceOnUse">
      <stop offset="0" stop-color="#fff"/>
      <stop offset="1" stop-color="#fff"/>
    </radialGradient>
    <radialGradient id="radial-gradient4" cx="179" cy="377.3" fx="179" fy="377.3" r="4.3" gradientTransform="translate(0 470) scale(1 -1)" gradientUnits="userSpaceOnUse">
      <stop offset="0" stop-color="#fff"/>
      <stop offset="1" stop-color="#fff"/>
    </radialGradient>
    <radialGradient id="radial-gradient5" cx="188.4" cy="385.5" fx="188.4" fy="385.5" r="1.6" gradientTransform="translate(0 470) scale(1 -1)" gradientUnits="userSpaceOnUse">
      <stop offset="0" stop-color="#fff"/>
      <stop offset="1" stop-color="#fff"/>
    </radialGradient>
    <radialGradient id="radial-gradient6" cx="217.9" cy="377.1" fx="217.9" fy="377.1" r="1.8" gradientTransform="translate(0 470) scale(1 -1)" gradientUnits="userSpaceOnUse">
      <stop offset="0" stop-color="#fff"/>
      <stop offset="1" stop-color="#fff"/>
    </radialGradient>
    <radialGradient id="radial-gradient7" cx="266.4" cy="347.6" fx="266.4" fy="347.6" r="3.5" gradientTransform="translate(0 470) scale(1 -1)" gradientUnits="userSpaceOnUse">
      <stop offset="0" stop-color="#fff"/>
      <stop offset="1" stop-color="#fff"/>
    </radialGradient>
    <radialGradient id="radial-gradient8" cx="250.1" cy="205" fx="250.1" fy="205" r=".9" gradientTransform="translate(0 470) scale(1 -1)" gradientUnits="userSpaceOnUse">
      <stop offset="0" stop-color="#fff"/>
      <stop offset="1" stop-color="#fff"/>
    </radialGradient>
    <radialGradient id="radial-gradient9" cx="262.7" cy="246.5" fx="262.7" fy="246.5" r="1.4" gradientTransform="translate(0 470) scale(1 -1)" gradientUnits="userSpaceOnUse">
      <stop offset="0" stop-color="#fff"/>
      <stop offset="1" stop-color="#fff"/>
    </radialGradient>
    <radialGradient id="radial-gradient10" cx="245.6" cy="237.7" fx="245.6" fy="237.7" r="4.1" gradientTransform="translate(0 470) scale(1 -1)" gradientUnits="userSpaceOnUse">
      <stop offset="0" stop-color="#fff"/>
      <stop offset="1" stop-color="#fff"/>
    </radialGradient>
    <radialGradient id="radial-gradient11" cx="253.8" cy="235.6" fx="253.8" fy="235.6" r="1.4" gradientTransform="translate(0 470) scale(1 -1)" gradientUnits="userSpaceOnUse">
      <stop offset="0" stop-color="#fff"/>
      <stop offset="1" stop-color="#fff"/>
    </radialGradient>
    <radialGradient id="radial-gradient12" cx="153.9" cy="379.5" fx="153.9" fy="379.5" r="1.4" gradientTransform="translate(0 470) scale(1 -1)" gradientUnits="userSpaceOnUse">
      <stop offset="0" stop-color="#fff"/>
      <stop offset="1" stop-color="#fff"/>
    </radialGradient>
    <radialGradient id="radial-gradient13" cx="89.9" cy="317.8" fx="89.9" fy="317.8" r="1.8" gradientTransform="translate(0 470) scale(1 -1)" gradientUnits="userSpaceOnUse">
      <stop offset="0" stop-color="#fff"/>
      <stop offset="1" stop-color="#fff"/>
    </radialGradient>
    <radialGradient id="radial-gradient14" cx="208" cy="387" fx="208" fy="387" r="2.6" gradientTransform="translate(0 470) scale(1 -1)" gradientUnits="userSpaceOnUse">
      <stop offset="0" stop-color="#fff"/>
      <stop offset="1" stop-color="#fff"/>
    </radialGradient>
    <radialGradient id="radial-gradient15" cx="166.2" cy="313.8" fx="166.2" fy="313.8" r="5" gradientTransform="translate(0 470) scale(1 -1)" gradientUnits="userSpaceOnUse">
      <stop offset="0" stop-color="#fff"/>
      <stop offset="1" stop-color="#fff"/>
    </radialGradient>
    <radialGradient id="radial-gradient16" cx="173.8" cy="327.9" fx="173.8" fy="327.9" r="1.4" gradientTransform="translate(0 470) scale(1 -1)" gradientUnits="userSpaceOnUse">
      <stop offset="0" stop-color="#fff"/>
      <stop offset="1" stop-color="#fff"/>
    </radialGradient>
    <radialGradient id="radial-gradient17" cx="208.1" cy="213" fx="208.1" fy="213" r="4.5" gradientTransform="translate(0 470) scale(1 -1)" gradientUnits="userSpaceOnUse">
      <stop offset="0" stop-color="#fff"/>
      <stop offset="1" stop-color="#fff"/>
    </radialGradient>
    <radialGradient id="radial-gradient18" cx="215.4" cy="208.3" fx="215.4" fy="208.3" r="1.3" gradientTransform="translate(0 470) scale(1 -1)" gradientUnits="userSpaceOnUse">
      <stop offset="0" stop-color="#fff"/>
      <stop offset="1" stop-color="#fff"/>
    </radialGradient>
    <radialGradient id="radial-gradient19" cx="147.7" cy="246.2" fx="147.7" fy="246.2" r="11.2" gradientTransform="translate(0 470) scale(1 -1)" gradientUnits="userSpaceOnUse">
      <stop offset="0" stop-color="#fff"/>
      <stop offset="1" stop-color="#fff"/>
    </radialGradient>
    <radialGradient id="radial-gradient20" cx="224.2" cy="317.4" fx="224.2" fy="317.4" r=".6" gradientTransform="translate(0 470) scale(1 -1)" gradientUnits="userSpaceOnUse">
      <stop offset="0" stop-color="#fff"/>
      <stop offset="1" stop-color="#fff"/>
    </radialGradient>
    <radialGradient id="radial-gradient21" cx="178" cy="263.8" fx="178" fy="263.8" r="131.3" gradientTransform="translate(0 470) scale(1 -1)" gradientUnits="userSpaceOnUse">
      <stop offset="0" stop-color="#fff"/>
      <stop offset="1" stop-color="#fff"/>
    </radialGradient>
  </defs>
  <ellipse class="st1" cx="179.2" cy="191.2" rx="147" ry="151.4"/>
  <g>
    <g>
      <path class="st7" d="M135,259.4c-.5-.3-1-.6-1.4-.9-1.1-.8-2-1.7-2.8-2.8-.3-.3-.5-.7-.6-1.1-.6,1.7-.7,3.6-.8,5.4-.2,2.7-.5,5.4-1.3,8-1.4,4.8-3.9,9.3-7.8,12.6-3.4,2.9-7.5,4.4-11.9,4.9-4.7.5-9.3.4-13.9,1.8-4.3,1.3-8.5,3.3-12,6.1-1.7,1.4-3.3,3.1-4.2,5.1-1,2.3-1,4.8-.9,7.2.2,4.3.8,9-1.5,13-1,1.8-2.5,3.2-4.4,4-1.9.9-3.9,1.2-5.8,2.1-3.2,1.6-5.8,4.5-7.3,7.8-.7,1.6-1.2,3.2-1.5,5,0,.6,0,1.1-.1,1.7,1.3-2.7,3.7-5,5.9-6.8,3.7-2.9,8-4.9,11.8-7.8,3.5-2.7,6-5.9,7-10.2,1.1-4.4.9-9.2,2.9-13.4,3.7-7.8,13-9.5,20.6-10.9,8.2-1.6,16.7-3.4,21.9-10.6,2.6-3.7,4-8.2,5.7-12.5.5-1.3,1-2.6,1.5-4,.3-.9,1.1-2.2,1.1-3.2,0-.2,0-.4-.2-.6h0Z"/>
      <path class="st7" d="M297.1,197c-.6-2.2-1.8-3.8-3.3-5.5-2.8-3.1-3.2-6.8-1.8-10.6,1.2-3.4,3.5-6.4,5-9.6,1.4-2.9,2.1-6.1-.3-8.7-2.8-3.1-6.9-4.4-9.2-8-4.9-7.7.5-16.5,0-24.7-.2-3.8-2.1-7-5.4-8.9-1.8-1.1-3.8-1.6-5.9-1.7.9.7.3,2.2-.9,2.1-5.3-.7-9-5.2-9.9-10.3-.2-1.3-.3-2.6,0-3.9.2-1.3.7-2.6.9-3.9.4-2.3-1.6-3-3.6-3.1-2.1-.1-4.2.6-6.2.8-2.4.3-5,.1-6.9-1.4-2-1.5-2.6-3.8-2.9-6.1-.3-1.9-.4-3.9-1.9-5.3-3-2.8-8.1-2.1-11.8-1.3-5.2,1.1-10.8,2.4-15.7-.5-3.5-2.1-5.7-5.6-8.1-8.7-2.1-2.7-4.7-5.6-8.4-5.8-3.7-.1-7,2.4-9.9,4.4-1.8,1.2-3.6,2.5-5.5,3.5,0,.3-.2.5-.5.7-.8.3-1.6.5-2.3.5-.7.2-1.4.4-2.2.5-.7,0-1.1-.5-1.1-1-5-1.8-9-7.8-14.5-7.9-3.5,0-6.8,1.8-9,4.4-2.4,2.9-3.1,6.7-4.8,9.9-1.8,3.4-4.6,5.8-8.5,6.4-3.5.5-7.1-.3-10.5-.6-3-.3-6,0-8.3,2.3-2,1.9-3.3,4.5-4.4,7-1.3,2.8-2.5,5.5-4.2,8.1-1,1.4-2.2,2.9-3.8,3.9.5.2.9.5,1.4.7.8.5.5,1.6-.5,1.5-2.9-.2-5.9-.9-8.8-.5-2.6.3-5.1,1.2-7,3.1-1.7,1.7-2.7,3.9-2.5,6.3.2,2.5,1.3,4.7,1.9,7.1,1,3.8.8,7.9-2.4,10.7-2.3,2.1-5.4,3.2-8.3,4.3-2.7,1-5.7,1.9-7.8,3.9-2.2,2.2-1.9,5.2-.6,7.8,1.5,3.1,3.9,5.8,5.1,9.2,1.3,3.7.4,7.2-2.1,10.1-1.2,1.4-2.6,2.6-3.9,3.8-1.1,1.1-2.4,2.4-2.8,4-.9,4.1,4.3,5.9,6.8,8,.7.6.7,1.6.2,2.3.5.8,1,1.6,1.3,2.2,1.2,2.4,1.7,5.1,1.6,7.7-.1,2.5-1,4.9-2.3,7.1-1.3,2-3.1,4.2-2.2,6.7,1.5,4.7,7.3,6.5,10.6,9.7,1.8,1.7,3.2,3.8,3.5,6.4.4,3.1-1.1,5.9-.9,8.9.2,2.5,2,4.5,4,5.9,1.3.9,2.8,1.4,4.2,2,.6.2,1.2.5,1.7.7,0-.2,0-.4,0-.6-.2-.9,1.3-1.6,1.8-.7,1,1.7,3,3.2,4.9,3.7,2.3.6,4.1,0,6-1.4,2.1-1.5,4.1-3.2,6.7-3.9.6-.2,1.5-.4,2.3-.4-.4-.3-.8-.5-1.2-.8-2.1-1.6-4-3.6-5.7-5.6-1.7-2-3.2-4.2-4.7-6.4-1.5-2.3-2.6-4.8-3.8-7.2-.7-1.4,1.4-2.4,2.3-1.3,1.6,2,3.3,4,4.8,6.1,1.5,2,3,3.9,4.6,5.8.1.2.3.3.4.5.6.5,1.3.9,1.9,1.3,1.2.8,2.4,1.6,3.6,2.4,1.4,1,2.7,2.1,4,3.1,1.2,1,2.6,1.9,3.4,3.3,0,.1,0,.3,0,.4.1.2.2.3.4.5,0,0,0,.1.1.2,0,0,0,0,0,0,.2.2.5.4.7.6,0,0,0,0,0,0,1.4.8,2.7,1.9,3.9,2.9.5.4,1.1.8,1.6,1.2.1,0,.2,0,.3.1.3.1.6.2.9.4.2.1.5.2.7.4.2,0,.3.1.5.3.2.1.5.3.7.5.3.2.5.4.8.6,0,0,0,0,0,0,1.3.6,2.5,1.2,3.8,1.7s2.6,1,3.9,1.4c.3.1.6.2.9.3.3-.2.8-.3,1.3,0,2.3,1.1,4.7,2,7,2.9,9.7,3.6,19.4,6.5,29.7,7.5,9.8.9,20,.2,29.6-2.4,16.6-4.6,31.7-14.7,41.5-28.9,5.7-8.3,9.1-17.8,11.3-27.5,2.1-9.4,3.3-19.2,3.3-28.9,0-18.9-4.9-38.1-16.8-53.2-5.4-6.9-12.2-13-19.9-17.3-7.7-4.3-16.3-6.7-24.9-8.5-1.8-.4-1.8-3,0-3.2,2.3-.2,4.6-.3,6.9,0,9.5.9,18.5,5.2,26.2,10.6,7.8,5.4,14.5,12.4,19.7,20.3,11.3,17.1,15,38,14,58.2-.5,10.6-2.5,21.2-5.6,31.3-3,9.6-7.5,18.7-13.9,26.5-11.9,14.4-29,24-47.3,27.3-10.5,1.9-21.5,1.7-32.1-.3-5.3-1-10.5-2.4-15.6-4.3-4.5-1.7-8.6-3.8-12.7-6.3-.1,0-.3,0-.4,0-.4,0-.8,0-1.3,0-.7,0-1.4-.1-2-.3-1.5-.4-3-1-4.5-1.5-1.4-.6-2.8-1.1-4.1-1.9-.2.9-.5,1.8-.4,2.7.2,2.5,2.4,3.4,4,4.9,1.6,1.4,2.6,3.3,3,5.4.4,2,0,4.1,1.2,5.8,2.2,3,6.5,3.2,9.8,2.7,4.5-.7,8.8-2.5,13.4-2.2,3,.2,7.5,1.7,8.5,4.9,1.4.9,2.7,2,3.9,3.1,2.6,2.3,5.3,4.8,8.6,6.1,5.6,2.1,11-1.9,15.8-4.4,2.5-1.3,5.1-2.4,7.9-2.5,3.7-.1,6.4,1.7,9.2,3.9,3.1,2.4,6.7,3.2,10.6,2.8,3.6-.4,7.3-1.6,10.3-3.5,2.8-1.8,4.9-4.3,5-7.8,0-3.6-.8-7.5,2-10.4,1.3-1.3,3.2.3,2.2,1.8-.7,1.1-.7,2.5-.6,3.8,1.6-1.2,3.8-1.6,6-1.7,3.4-.1,6.8,0,9.8-1.9,2.6-1.6,4.6-4,5.8-6.8,1.3-3.2.8-6.5.2-9.8-.6-3.4-1.4-7.1-.5-10.5.9-3.3,3.3-5.4,6.1-7.3,2.3-1.6,4.7-3.3,3.7-6.4-1.1-3.4-3.6-6.1-3.4-10,.1-1.8,1.1-3.5,2.6-4.5,1.3-.9,2.7-1.3,3.7-2.7.8-1.1,1.2-2.4,1.5-3.7,0,0-.2,0-.2,0-1.2.5-3.6,1.1-4.6-.2-.3-.5-.2-1,0-1.4.2-.4.6-.5,1-.7.1,0,.2,0,.3-.1,0,0,.3,0,.4-.1.5-.1,1-.3,1.5-.5.3-.1.5-.2.8-.4,0,0,0,0,0,0,0,0,0,0,0,0,.1,0,.2-.1.4-.2.5-.3.9-.6,1.3-1,0-.2.2-.4.2-.5.2-.4.5-.6.9-.7,0-.1.2-.2.3-.4,0,0,.1-.2.1-.2.1-.2.2-.4.3-.5.1-.2.3-.4.4-.6,0,0,.1-.2.1-.2.1-.2.2-.4.3-.6,0,0,.2-.4.1-.1,0-.2.2-.3.3-.5,0,.2,0-.2,0-.2,0-.1.1-.2.2-.4.1-.2.3-.4.6-.5.2-.5.3-1.1.4-1.6.4-1.9.4-3.9,0-5.7h0Z"/>
    </g>
    <path class="st7" d="M275.5,196.3c1.5-13.1.9-26.6-1.9-39.5-1.4-6.6-3.3-13.1-6.7-19-2.9-5.1-6.9-9.4-11.3-13.2-9.7-8.1-21.7-13.6-33.7-17.4-13.1-4.2-26.9-6.1-40.7-5.8-12.6.3-25.4,2.5-36.7,8.2-7.3,3.7-13.8,8.8-18.9,15.2-.2,0-.4,0-.5,0-5.1,4-8.2,9.9-10.7,15.8-2.9,7-5.8,14-8.3,21.2-4.8,13.8-8.1,28.3-6.7,42.9,1.2,12.9,6.5,24.9,15.3,34.5,8.5,9.4,19.4,16.4,31.1,21.2,7.9,3.2,16.1,5.6,24.4,7.4,10.7,6.8,23.9,7.4,36.2,5.4,11.7-2,23.4-6,33.6-12.2,5-3.1,9.7-6.8,13.7-11.1,4.4-4.7,7.9-10.1,10.8-15.9,5.9-11.8,9.5-24.8,11-37.9h0Z"/>
    <path class="st4" d="M168.9,210.8c-.6-.4-1.3-.6-2-.7,0-.4-.5-.7-1-.6-.5.1-1.1.3-1.6.5-.6,0-1.2.2-1.7.3-1.8.5-3.4,1.5-5,2.4-.6.3-1.2.6-1.7.9,0,0-.2,0-.3.1-.1,0-.2.1-.3.2-.4.2-.8.4-1.2.7-3.7,2-7.4,4.3-10.6,7.2-3.2,2.8-6,5.9-8.3,9.6-1.2,2-2.5,4.1-2.9,6.4-.5,2.2,0,4.4,1.2,6.4,2.3,4,6.5,6.8,10.5,8.7,2.2,1,4.6,1.8,7,2.2,2.5.5,4.9.7,6.8-1.2,1.7-1.7,2.7-4,3.6-6.2,1-2.4,1.8-4.9,2.7-7.4,1.8-5.1,3.5-10.2,5.1-15.3.5-1.4.9-2.8,1.3-4.3.4-1.3.9-2.6,1-3.9.3-2.4-.6-4.6-2.7-5.8h0Z"/>
    <path class="st1" d="M154,233.2c.1-.6.2-1.3,0-2-.5-2.2-2.8-3.2-4.9-2.7-1.5.3-2.7,1.1-3.8,2.1,0,0,0,0,0,0-.2.1-.5.3-.7.4-1.9,1.3-3.5,3.2-4.3,5.3-1,2.5-.7,5.3,1.8,6.8.5.3,1,.4,1.5.6,1.8.6,3.8,0,5.4-1.1,1.9-1.3,3.5-3.3,4.4-5.4.5-1.3.8-2.7.6-4h0Z"/>
    <path class="st9" d="M234.7,135.4c-4-2.6-8.7-4.1-13.3-5.2-4.6-1.1-9.3-1.7-14-1.5-5.7.3-11.3,2.1-15.8,5.5-5.7,2.9-9,8.9-10.8,14.9-1.1,3.6-1.8,7.4-2.2,11.2-.5,4.2-.7,8.6-.2,12.8,1,8.4,5.1,15.6,12.2,20.3,6.7,4.5,14.8,6.6,22.7,7.6,4.7.6,9.4.7,13.9-.5,3.5-1,6.8-2.8,9.6-5.2,5.7-5,9.3-12,11.2-19.3,3.5-14.2-.3-32.3-13.3-40.7h0Z"/>
    <path class="st1" d="M226.3,150.4c-.9-.4-1.9-.6-2.8-.7-5.1-2.6-12.2-1.9-16.6,1.6-3.3,2.7-5.1,6.8-4.7,11.1.4,4.3,3,8.1,7.1,9.8,4.6,1.9,10.2,1.8,14.7-.4,4.1-2,8-5.6,9.2-10.2,1.2-4.9-2.2-9.6-6.7-11.2h0Z"/>
    <path class="st1" d="M133.7,258.8c-.9,7.6-4,15.6-9.4,21.2-2.8,2.9-7.1,3.6-10.8,4.8-4.2,1.3-8.4,2.5-12.6,3.8-3.8,1.1-7.9,1.9-11.2,4.3-2.7,1.9-4.6,4.7-5.9,7.6-1.4,3.1-2.2,6.5-3.1,9.9-.8,3.5-1.9,7.3-4.8,9.7-1.6,1.4-3.4,2.4-5.1,3.6-1.8,1.3-3.5,2.7-5.2,4.2-3.3,2.9-6.6,6-8.9,9.8-.3.6.5,1.2,1,.8,3.2-2.5,6-5.4,9.1-8,3-2.6,6.3-4.8,9.5-7,3.2-2.2,5.2-5.1,6.3-8.8,1.1-3.4,1.6-7,2.8-10.4,1.1-3.1,2.7-6.2,5.3-8.4,3.1-2.5,7.3-3.1,11-4.2,4.2-1.2,8.4-2.5,12.6-3.8,3.8-1.2,8.3-2,11.3-4.8,3.2-2.9,5.6-6.9,7.5-10.7,2-4.1,3.3-8.5,3.9-13.1.3-2.1-3.1-2.7-3.3-.5h0Z"/>
    <path class="st7" d="M170,223.1c.6-2.9.8-5.9.7-9,0-2-3-1.9-3.4-.2-.5.2-.9.7-.8,1.3,0,.8,0,1.6,0,2.4-1.5,6.8-4,13.4-7.4,19.4-1.9,3.5-4.1,6.9-6.7,10-1.2,1.4-2.5,2.5-4.4,2.8-1.8.3-3.9.2-5.8,0-.8,0-1.2,1.1-.4,1.3,1.5.5,2.8,1.2,4.4,1.4-.2.5-.2,1.1.2,1.6,2.1,2.5,5.7,3,8.6,1.6,3.2-1.5,5-4.6,6.6-7.6,3.7-6.6,6.7-13.7,7.9-21.2.2-1.3.3-2.6.4-4h0Z"/>
    <path class="st19" d="M163.6,220.8c-.4-.4-1.2-.5-1.7-.3-.3.2-.7.3-1,.5,0,0-.2.1-.3.2-.4.3-.6.7-.7,1.2v.2c0,.1-.1.2-.2.4-.3.6-.6,1.3-.7,2v.4c0,.1,0,.3,0,.4.1.3.4.6.7.8.6.4,1.2.3,1.8,0,.4-.2.7-.6,1-.9.2-.2.4-.5.6-.8.5-.8.9-1.6,1.1-2.5.1-.6-.2-1.2-.6-1.6h0Z"/>
    <path class="st1" d="M162.6,216.5c-1.3-.2-1.6,1.8-.3,2,1.3.2,1.6-1.8.3-2Z"/>
    <path class="st22" d="M119.9,245.7c-6.2-5.8-12.5-11.8-16.4-19.5-4-7.9-5.9-16.8-7.3-25.5-2.6-17.2-1.3-35.2,6.2-51.1,1.9-4.1,4.2-7.9,6.9-11.6,1.3-1.8,2.8-3.5,4.2-5.3.7-.9,1.5-1.7,2.2-2.5.9-.9,1.6-1.9,2.5-2.8.5-.5,0-1.3-.7-.9-.8.6-1.7,1-2.5,1.6-.9.7-1.8,1.4-2.6,2.1-1.6,1.4-3,2.9-4.4,4.5-2.7,3.1-5.1,6.6-7.1,10.2-4.3,7.5-7,15.8-8.4,24.2-1.6,9.4-1.6,19.2-.4,28.7.6,4.7,1.5,9.4,2.6,14,1.1,4.4,2.3,8.8,4.1,13,4.1,9.4,11.3,16.6,18.6,23.5,1.7,1.6,4-1.2,2.3-2.8h0Z"/>
    <path class="st1" d="M88.9,201.5c0-1-.3-2-.9-2.9-.2-.3-.7-.6-1.1-.7-.4,0-.9,0-1.2.3-.8.7-1.5,1.5-1.9,2.5s-.5,2.1,0,3.1c.4,1,1.3,1.9,2.5,2.1,1,.2,2.1-.3,2.7-1.2.7-1,.8-2.3,0-3.2h0Z"/>
    <g>
      <path class="st1" d="M84.7,184.2c0-.1,0-.3,0-.4,0-.1,0-.2-.1-.4,0-.1-.1-.2-.2-.3-.1-.2-.3-.3-.5-.4,0,0,0,0,0,0l.3.2h0c0,0-.2-.1-.3-.2-.1,0-.2,0-.3-.1.1,0,.2,0,.3.1-.1,0-.3-.1-.4-.1-.3,0-.5,0-.8,0l-.3.2c-.2.2-.4.4-.5.6,0,.2-.1.4-.1.6,0,.2,0,.4,0,.6,0,.2.2.5.5.6.2.2.5.3.7.3h.5c0,0,.1,0,.2,0,0,0,.1,0,.2,0l.3-.2.3-.3c0-.1.1-.2.2-.3,0-.2.1-.4.1-.6h0Z"/>
      <path class="st1" d="M83.7,182.8h0s0,0,0,0c0,0,0,0,0,0h0Z"/>
      <polygon class="st1" points="83.8 182.8 83.8 182.8 83.8 182.8 83.8 182.8 83.8 182.8"/>
    </g>
    <path class="st21" d="M183.8,91.5c-.3-.8-1-1.3-1.8-1.6-1.2-.6-2.7-.8-4-.7-1.5.1-3,.7-3.7,2.1-.7,1.3-.1,2.9.9,3.9,1.1,1,2.6,1.2,3.9.8.4,0,.7,0,1.1,0,1.4-.2,2.8-1,3.4-2.2.3-.7.4-1.5.1-2.2h0Z"/>
    <path class="st8" d="M189.9,84.5s0,0,0,0h0c0-.2,0-.4,0-.6,0-.2,0-.3-.2-.5-.1-.2-.2-.3-.4-.4-.2-.1-.3-.2-.5-.2h-.4c-.2,0-.5.1-.7.3,0,0-.2.2-.3.2-.2.2-.3.4-.3.7h0c0,.2-.1.3-.1.4v.4c0,.3.1.5.3.7h0c.1.2.2.3.4.4.2.1.3.2.5.2h.4c.3,0,.5-.1.7-.3h0c.2-.1.3-.3.4-.4.1-.2.2-.3.2-.6v-.4h0Z"/>
    <path class="st1" d="M235.2,98.4c-.7-1.8-2.9-2.5-4.7-1.9-1.2.3-2,1.3-2.3,2.4-.2,0-.4,0-.6,0-.4,0-.8.1-1.2.2s-.6.3-.9.6c-.5.4-.4,1.1.2,1.4.2.1.6.3.9.4.3,0,.6,0,.8,0,.3,0,.6.1.9.2.1,0,.3,0,.4,0,0,0,0,0,0,0,1.2,1.5,3.4,2.1,5.2,1,.5-.3.7-.8.7-1.3.6-.9.8-2.1.4-3.2h0Z"/>
    <path class="st18" d="M219.7,92.9c0-.3-.1-.5-.3-.7s-.3-.4-.6-.5c0,0-.2,0-.2,0h-.2c-.2-.2-.3-.3-.4-.4-.2,0-.3-.1-.5,0-.2,0-.3,0-.5,0,0,0-.2.1-.3.2-.2,0-.3.2-.3.4,0,0-.1.2-.1.3,0,.2,0,.3,0,.5,0,.1,0,.2,0,.3,0,.2.2.4.4.5.2.1.3.3.5.4h0c.2.2.3.4.6.5.2.1.5.2.8.1.1,0,.2,0,.4,0,.2,0,.4-.2.6-.4.1-.2.2-.3.3-.5,0-.2,0-.4,0-.6h0Z"/>
    <path class="st10" d="M269.4,122.9c0-.2-.1-.3-.2-.5,0-.3,0-.6,0-.9-.1-.8-.5-1.6-1.1-2.2-.5-.4-1.1-.8-1.8-.8-.9,0-1.7.2-2.3.9-.5.6-.7,1.5-.7,2.3,0,.8,0,1.6.3,2.4.7,1.6,2.4,2.7,4.2,2.1.9-.3,1.5-1.2,1.7-2.1,0-.4,0-.8,0-1.2h0Z"/>
    <path class="st1" d="M281.2,150.5c0-.1,0-.3,0-.4,0,0,0-.2,0-.3,0-.1-.1-.2-.3-.3-.2-.1-.3-.2-.5-.2,0,0-.2,0-.3,0-.2,0-.4-.1-.6-.1-.1,0-.3,0-.4,0-.2,0-.3.1-.5.2,0,0,0,0-.1,0-.2,0-.3.1-.4.3-.1.1-.2.2-.3.4,0,.1,0,.2,0,.3,0,.2,0,.4,0,.6,0,.1.2.3.3.4.3.3.3.3.6.5,0,0,0,0,.1,0h.4c.2.2.4.1.6,0,.1,0,.3,0,.4-.1.2,0,.3-.2.5-.4,0,0,0,0,0,0,.2-.1.3-.3.4-.5,0-.1,0-.2,0-.4h0c0,0,0-.2,0-.3h0Z"/>
    <path class="st1" d="M273.3,259.7c-.2-.7-1.1-1.2-1.8-1.1-.9.2-1.8.5-2.5,1-2,.9-3.5,2.9-3.6,5v.5c0,0,0,.1,0,.2,0,0,0,0,0,0,0,.1,0,.2,0,.4h0c0,.1,0,.1,0,.1,0,.4.3.8.6,1.1,0,0,0,0,0,.1.7.9,2,1.2,3,.7.7-.3,1.2-.8,1.8-1.3.5-.5,1.1-1,1.5-1.6,1.1-1.5,1.6-3.3,1-5.1h0Z"/>
    <path class="st1" d="M275.2,242.6c-.2-.2-.5-.4-.8-.5-.3,0-.7,0-.9.2-.2.1-.3.3-.5.4-.2.2-.5.4-.6.6-.3.3-.5.7-.8,1-.2.3-.4.8-.2,1.2,0,.2.2.3.4.4.2,0,.4,0,.6,0,.2,0,.3,0,.5-.2,0,0,0,0,.1,0,0,0,.2-.1.3-.2.2-.1.3-.2.5-.4.4-.3.7-.6,1.1-.9.1,0,.2-.2.3-.3,0-.1.2-.3.2-.4,0-.3,0-.6-.2-.9h0Z"/>
    <path class="st1" d="M249.6,280c0-.4,0-.7-.2-1-.2-.3-.5-.5-.9-.5-1.2-.1-2.3.3-3.2,1.2-.3.3-.6.8-.8,1.2-.2.6-.4,1.4-.2,2.1,0,.1.1.2.2.3,0,.1,0,.3,0,.5,0,.6.1,1.3.5,1.8.5.6,1.1.9,1.9.8,1.5-.2,1.9-1.8,2.3-3.1.3-1.1.5-2.1.5-3.3h0Z"/>
    <path class="st15" d="M250.3,264.1c-1.2-.2-1.5,1.7-.3,1.9,1.2.2,1.5-1.7.3-1.9Z"/>
    <path class="st1" d="M267.8,242.5c-4.6,4.8-8.8,9.9-13.9,14.2-5,4.2-10.6,7.8-16.5,10.8-11.8,5.9-25,9-38.2,8.6-4.4-.1-8.8-.7-13.1-1.4-2.5-.4-4.9-.9-7.3-1.4-1.2-.2-2.4-.5-3.5-.7-1.4-.2-2.7,0-4.1-.3-.7-.1-1,1-.3,1.1,1.1.3,2,1,3,1.4,1,.4,2.1.7,3.2,1,2.3.6,4.5,1.2,6.8,1.7,4.2,1,8.5,1.6,12.8,1.9,6.9.5,13.8,0,20.5-1.3,13.5-2.7,26.4-8.6,37-17.3,5.9-4.8,11.8-10.5,15.2-17.4.5-1-.9-1.7-1.6-1h0Z"/>
    <path class="st1" d="M275.5,228.8c0-1,.1-2.1-.2-3.1-.2-.5-.8-.3-1,.1-.3.9-.3,2-.5,2.9-.2.9-.3,1.9-.5,2.8-.5,1.9-1.2,3.7-2.1,5.4-.4.8.8,1.3,1.3.6,1.1-1.8,1.9-3.7,2.4-5.7.3-1,.5-2,.5-3h0Z"/>
    <path class="st1" d="M285.1,181.1c-.3-9.5-3.3-18.6-6.2-27.6-.9-2.7-1.8-5.4-2.6-8.2-.4-1.3-.8-2.6-1.3-3.9-.5-1.4-1.3-2.7-2-4.1-.5-1-2.3-.8-2.1.5.3,2.5.8,4.8,1.5,7.2.8,2.4,1.5,4.7,2.3,7.1,1.4,4.4,2.9,8.8,4.2,13.3,1.2,4.4,2.2,8.8,2.7,13.3.5,4.8.3,9.5-.3,14.3-.3,2.6-.7,5.2-1.1,7.8-.2,1.4-.4,2.7-.6,4.1-.1,1.4,0,2.8-.3,4.1,0,.5.8.8.9.3.7-2.3,1.8-4.5,2.3-6.8.6-2.3,1.1-4.7,1.5-7.1.8-4.8,1.2-9.6,1-14.5h0Z"/>
    <path class="st1" d="M123.8,140.6c.5-1,.8-2,1.2-3,.5-1,1.1-2,1.7-3,2.4-4,5.7-7.4,8.3-11.2.3-.5-.3-1.1-.8-.6-2.9,3.1-5.1,6.7-7.6,10.1-1.2,1.7-2.5,3.4-4,4.9-1.5,1.5-2.6,3.1-3.8,4.9-2.4,3.4-4.3,7.2-6.1,10.9-1.8,3.7-3.5,7.5-4.9,11.4-2.9,7.8-5.1,15.9-6.2,24.1-.9,7.1-1.1,14.4.2,21.5.7,3.7,1.9,7.5,3.7,10.8.9,1.7,2,3.2,3.2,4.7.6.7,1.2,1.4,1.9,2,.8.6,1.6,1.1,2.4,1.7.6.5,1.3-.4.8-.9-1.2-1.1-2-2.7-3-4.1-.9-1.3-1.7-2.7-2.3-4.1-1.4-2.9-2.4-6-3.1-9.1-1.4-6.7-1.4-13.5-.6-20.3,1.8-15.8,7.7-30.9,15.6-44.7,1.1-1.9,2.2-4,3.1-6h0Z"/>
    <path class="st14" d="M144.3,115.7c0,0,0,0,0,0,0,0,0,0,0,0Z"/>
    <path class="st1" d="M131.3,144.4c-.1-1.1-1.3-1.8-2.3-1.4-1.9.8-3.2,2.4-4.1,4.2-.4.8-.7,1.6-1,2.5-.2.6-.4,1.1-.5,1.7-.1.4-.2.7-.3,1.1-.3,1.2-.2,2.6,1.1,3.2.2,0,.4.1.6.2,0,0,0,0,.2,0,1.4.5,2.8,0,3.8-.9.8-.8,1.2-1.9,1.5-2.9.2-.7.4-1.4.5-2.2.6-1.8.7-3.6.5-5.5h0Z"/>
    <path class="st14" d="M136.3,149.4c0,0,0,0,0,0,0,0,0,0,0,0Z"/>
    <path class="st1" d="M186,109.9s0,0,0,0c-.2-.2-.4-.4-.7-.6-.7-.4-1.5-.5-2.3-.4-1.2,0-2.3,0-3.4.6-.7.3-1.3.7-1.7,1.3-.6.9-.4,2.1.5,2.8.6.4,1.3.5,2,.6.6,0,1.2,0,1.8-.1,1.5-.3,2.7-1,3.7-2.1,0-.1.2-.2.2-.4.1,0,.3-.2.3-.4.2-.5,0-1-.5-1.3h0Z"/>
    <path class="st1" d="M273.1,197.4c0-1.4-.9-2.6-2.2-3-1.3-.4-2.7-.3-3.8.6-1,.8-1.7,1.9-2.1,3.1-.5,1.4-1.1,3.1,0,4.4.6.7,1.5,1.1,2.4,1.1.3.2.6.4,1,.4.9.1,1.6-.4,2.3-1,.5-.5,1-1,1.4-1.6.7-1.2,1.2-2.5,1.1-3.9h0Z"/>
    <path class="st23" d="M264.1,223.5c0-.2,0-.3,0-.5,0-.2-.2-.4-.4-.5-.2-.1-.4-.2-.6-.3,0,0,0,0,0,0-.1,0-.3,0-.4,0-.2,0-.5.1-.6.2,0,0,0,0,0,0,0,0,0,0,0,0,0,0,0,0,0,0,0,0-.2.1-.2.2h0s0,0,0,0c0,0-.1.2-.2.3h0c0,0,0,.2,0,.3,0,0,0,.2,0,.3,0,0,0,.2,0,.3,0,0,0,0,0,0,0,0,0,.1.1.2,0,.1.2.2.4.3,0,0,.2,0,.3,0h0,0,0c.1,0,.3.1.4.2.2,0,.5,0,.7,0l.3-.2c.2-.1.3-.3.4-.5,0-.2.1-.3,0-.5h0Z"/>
    <path class="st2" d="M248.8,231.9c.2-.4.4-.9.5-1.3.1-.6,0-1.3-.4-1.9-.6-.8-1.5-.9-2.4-.7-.4,0-.8,0-1,.4,0,0,0,0,0,0-.3.2-.7.4-1,.7-1.4,1.2-2.4,2.9-2.5,4.8,0,.6,0,1,.5,1.5.3.3.7.5,1.1.5.2.2.3.3.6.4-.6-.3,0,0,.2.1.2,0,.4.1.5.2.2,0,.5,0,.7,0,.6,0,1.2-.4,1.4-1,0-.3.1-.6,0-.9.3-.2.5-.4.8-.7.6-.6,1-1.4,1.2-2.1h0Z"/>
    <path class="st3" d="M255.2,234c0-.2,0-.3-.2-.5,0-.1-.2-.3-.4-.3-.2-.1-.3-.2-.5-.2-.2,0-.5,0-.7,0,0,0,0,0-.1,0-.1,0-.2.1-.3.2,0,0-.2.1-.2.2,0,0,0,0,0,0,0,0,0,0,0,0-.1.1-.2.3-.3.4,0,0,0,.2,0,.3,0,.1,0,.3,0,.4,0,0,0,.2,0,.3,0,.1.1.2.3.3,0,0,0,0,0,0,0,0,.2.1.3.2,0,0,.2,0,.3,0,0,0,0,0,.1,0,0,0,0,0,0,0,.1,0,.3,0,.4,0,0,0,0,0,.2,0,.2,0,.5-.1.6-.2l.2-.2c.2-.2.2-.4.3-.6,0-.2,0-.4,0-.5h0Z"/>
    <path class="st1" d="M227.5,175.6c0,0,0-.1-.2-.2,0,0,0,0,0,0,0-.1-.2-.2-.3-.3-.2-.2-.4-.3-.7-.4-.5-.1-.7-.2-1.2-.2-.3,0-.5,0-.8.1-.5.1-.9.5-1.2.9,0,.1-.2.2-.2.4-.2.1-.3.3-.5.5-.2.2-.3.5-.5.7,0,.2-.1.4-.1.6,0,.2,0,.4,0,.6.2.3.4.6.8.8.4.2.9.2,1.3.3.3.2.7.2,1,.2s.8-.1,1.1-.5c.1-.1.2-.3.2-.5.4-.3.8-.6,1.1-1,.4-.6.5-1.3,0-1.9h0Z"/>
    <path class="st1" d="M231.2,178.1c-1.8-.3-2.2,2.5-.4,2.8,1.8.3,2.2-2.5.4-2.8Z"/>
    <path class="st1" d="M154.3,81c0-.7-1-.8-1.4-.4-1.1,1.1-1.7,2.7-2.3,4-.6,1.3-1.1,2.7-1.7,4-.5,1.1-1.1,2.4-2.2,3-1.2.7-2.5.7-3.8.7-2.9,0-5.8-.5-8.7-.8-2.8-.3-6.2-.7-8.9.5-.6.3-1,1.1-.5,1.6.2.2.3.4.4.7,0,.2.3.2.4,0,.4-.5,1.6-.2,2.2-.2.8,0,1.7,0,2.5.2,1.7.2,3.3.5,5,.8,3.1.5,6.5,1.1,9.6.4,3-.7,5.1-2.4,6.3-5.3.7-1.5,1.2-3.1,1.8-4.6.5-1.5,1.2-3.1,1.1-4.8h0Z"/>
    <path class="st16" d="M155.2,89.9c0-.3-.2-.5-.4-.7-.2-.1-.5-.2-.7-.1-.1,0-.2,0-.3.1-.1,0-.2.2-.3.4-.2.3-.3.5-.5.8,0,0,0,.1-.1.2h0c0,.2,0,.2-.1.3,0,.1,0,.3,0,.4,0,.2,0,.4.2.5s.3.1.5,0c.1,0,.2,0,.4-.2.2,0,.2-.1.4-.3,0,0,0,0,0,0,0,0,0,0,.2-.2l.7-.7c.2-.2.2-.4.2-.7h0Z"/>
    <path class="st1" d="M110.3,115.4c-.8-.4-1.7-.4-2.6-.3-1,0-2,0-2.9,0-1.7.2-3.4.5-5,.9-3.1.9-6.1,2.7-7.1,6-1.1,3.5,0,7,1,10.3.5,1.7.9,3.4.7,5.1-.2,1.8-1,3.2-1.4,4.8-.2.7.7,1.3,1.3,1,3.1-1.3,3.8-5.6,3.4-8.5-.4-3.3-2-6.4-2-9.7,0-3.2,2.1-4.9,5-5.8,1.6-.5,3.2-.8,4.9-1.2.8-.2,1.6-.4,2.5-.5.9-.2,1.7-.2,2.5-.7.6-.4.4-1.2-.2-1.5h0Z"/>
    <path class="st13" d="M91.6,151.9h0c0-.2,0-.3,0-.4,0-.1-.1-.3-.2-.4-.2-.2-.3-.3-.5-.5-.2-.1-.4-.2-.7-.3,0,0,0,0-.2,0,0,0,0,0-.2,0-.1,0-.3,0-.4,0,0,0-.2,0-.2.1-.1,0-.2.1-.3.2,0,0,0,0,0,0-.2.2-.3.4-.5.6,0,.2-.1.4-.1.6,0,.2,0,.4,0,.5,0,.1.1.2.2.3,0,.1.2.2.3.3,0,0,0,0,0,0,0,.4.3.8.7.9.2,0,.4.1.6.1.2,0,.4-.1.6-.2.2-.1.3-.3.5-.4.1-.2.3-.4.3-.6.1-.3.2-.6.2-.9h0Z"/>
    <path class="st12" d="M209.7,84.2c.2-.4.3-.8.4-1.3,0-.7,0-1.4-.5-2-.1-.1-.2-.3-.4-.4-.3-.2-.5-.3-.9-.4-.2,0-.4,0-.6,0-.2,0-.4,0-.6.1,0,0,0,0,0,0-.1,0-.3.1-.4.2-.1,0-.2.2-.3.3,0,0,0,0,0,0-.3.3-.4.6-.5,1.1,0,.2,0,.4,0,.6,0,0,0,.2,0,.2,0,.3.1.6.2.8,0,0,.1.2.2.3,0,0,0,0,0,0,.2.6.6,1.2,1.1,1.6.1,0,.2.1.3.2.1,0,.2,0,.4.1.3,0,.7,0,.9-.2.5-.2.7-.7.8-1.2,0,0,0-.2,0-.3h0Z"/>
    <path class="st20" d="M169.8,153.9c0-.8,0-1.6-.2-2.4-.1-.6-.4-1-.9-1.3-.5-.2-1.2-.2-1.6.2-1.5,1.2-2.8,2.8-3.6,4.7-.4.9-.7,1.9-.8,3-.1,1.1-.2,2.2.5,3.1.9,1.2,2.5,1.4,3.7.5.9-.6,1.4-1.6,1.8-2.6.5-1,.8-2.1,1-3.2.1-.6.2-1.3.1-2h0Z"/>
    <path class="st24" d="M174,140.7c-1.8-.3-2.2,2.5-.4,2.7,1.8.3,2.2-2.5.4-2.7Z"/>
    <path class="st1" d="M252.4,194.4c0-.2,0-.5.1-.7,0-.3,0-.5,0-.8,0-.2,0-.4,0-.6,0-.6,0-1.1-.6-1.6-.4-.4-1.1-.5-1.7-.3-1.3.6-2.3,1.5-3.1,2.6,0,0-.1,0-.2.1-1,.7-1.7,1.8-1.6,3,0,.3.1.5.2.7,0,.3,0,.7,0,1,0,1,.7,1.9,1.7,2.2,1.6.5,3-.8,3.8-2.1.4-.6.7-1.2.9-1.9.3-.2.5-.4.6-.8.1-.4,0-.8,0-1.1h0Z"/>
    <path class="st1" d="M269.9,170.7c0-.3.1-.6.2-1,0-.5.1-1,0-1.5,0-1.1-1.3-1.8-2.3-1.7-1.2.2-2,1.1-2.6,2.1-.5.9-.9,1.8-1.2,2.8-.1.4-.2.8-.2,1.2,0,.5-.1,1,0,1.5,0,.7.4,1.3,1,1.8.7.6,1.7.6,2.5.3,1-.4,1.9-1.2,2.4-2.2.5-1,.6-2.2.3-3.3h0Z"/>
    <path class="st1" d="M268.2,159.8c0-.2,0-.4-.2-.6,0,0-.1-.1-.2-.2-.2-.1-.4-.2-.6-.3-.2,0-.3,0-.5,0-.2,0-.3,0-.4.2-.1,0-.2.2-.3.4,0,.1-.2.3-.2.4v.3c0,.2,0,.4.2.6,0,0,.1.1.2.2.2.1.4.2.6.3.2,0,.3,0,.5,0,.2,0,.3,0,.4-.2.1,0,.2-.2.3-.4,0-.1.2-.3.2-.4v-.3Z"/>
    <path class="st17" d="M212.9,254.2c-.2-.4-.6-.7-1.1-.8-1.8-.4-3.8-.1-5.4.7h0c-.2,0-.5,0-.7.1-.8.3-1.4,1-1.7,1.8-.9,1.1-1.4,2.4-.2,3.7,1.5,1.6,4,1.1,5.8.2,1-.5,1.8-1.1,2.5-2,.4-.5.8-1.1.9-1.7,0-.1,0-.3,0-.4,0,0,0-.1.1-.2.2-.4.2-1,0-1.4h0Z"/>
    <path class="st11" d="M215.6,260.4c-1.6-.2-2,2.3-.4,2.5,1.6.2,2-2.3.4-2.5Z"/>
    <path class="st6" d="M159.1,213.6c-2.6.2-5,1.4-7.2,2.7-2.3,1.3-4.4,2.8-6.4,4.5-4,3.4-7.2,7.5-9.8,12-.4.7.7,1.4,1.2.7,3-3.9,6.6-7.4,10.5-10.5,1.9-1.5,4-2.9,6-4.2,2.1-1.3,4.4-2.4,6.3-3.9.6-.5.2-1.4-.5-1.3h0Z"/>
    <path class="st1" d="M86.9,291.2c-.3,0-.6,0-.9,0-.3,0-.6,0-.9.2-.6.2-1.1.5-1.6.8-1,.6-1.8,1.5-2.6,2.3-.8.8-1.5,1.8-2.1,2.8-.3.5-.4,1-.6,1.5-.2.5-.4,1.1-.5,1.6-.2.7.9.9,1.2.4.2-.4.4-.9.7-1.2.3-.4.7-.8,1-1.2.7-.8,1.3-1.6,2-2.3.7-.6,1.5-1.2,2.2-1.8.4-.3.8-.6,1.2-.9.2-.2.4-.4.6-.5.2-.2.4-.3.6-.5.3-.4.1-1.1-.4-1.1h0Z"/>
    <path class="st1" d="M95.5,286.8c0-.2-.3-.2-.5-.2-.4,0-.8.1-1.2.3-.4.1-.8.3-1.1.4l-2.2,1c-.3.1-.5.5-.4.9.2.3.5.5.9.4.8-.3,1.5-.6,2.3-.9.4-.1.7-.3,1.1-.5.2-.1.4-.2.6-.3.2-.1.4-.3.5-.4.1-.1.1-.4,0-.5h0Z"/>
    <g>
      <path class="st1" d="M168.6,103.4c5.6-1.1,11.3-1.4,17-1.9.1,0,.2,0,.3,0,2.2-.1,4.4-.2,6.7,0,2.7.1,5.4.4,8,.9,2.2.4,5.3,1.6,7.3.2.4-.3.6-.9.4-1.4-.9-2.5-4.7-3-7-3.4-2.8-.5-5.7-.8-8.6-.8-2.8,0-5.8.1-8.6.6-1.2.2-2.6.5-3.8.9-8.7-.6-17.8,1.4-25.9,4.2-10,3.5-19.3,9-27.4,15.9-18,15.6-28.6,37.9-31.1,61.4-1.5,13.7-.9,28.7,4.6,41.5.6,1.4,2.8.9,2.6-.6-1.4-11.8-3.1-23.4-2.4-35.3.8-11.8,3.4-23.4,8.3-34.1,8.6-19.1,24.1-34.6,43.4-42.9,5.2-2.3,10.7-4,16.3-5.1h0Z"/>
      <path class="st1" d="M192.8,194.3c-1.1-.7-2.1-1.4-3.1-2.2-2-1.5-3.9-3.3-5.6-5.3-3.5-4.2-5.8-9.3-6.7-14.7-1.9-11,1.2-23.3,8.6-31.7,1.8-2.1,4-3.8,6.3-5.3,1.4-.9,2.8-1.5,4.3-2.1.2.1.4.3.7.3.9.1,1.4-.5,1.5-1.2.5-.2.9-.4,1.3-.6,0,0,0,0,0,0,.8-.3.8-1.6-.2-1.8-2.6-.5-5.4.4-7.8,1.5-2.6,1.1-4.9,2.7-7,4.6-4.3,3.9-7.5,8.9-9.6,14.3-4.7,12.2-3.9,26.4,3.7,37.3,1.9,2.7,4.2,5.1,6.7,7.1,1.3,1,2.7,1.9,4.2,2.6,1.4.7,3,1.6,4.7,1.2.9-.2,1.4-1.1.8-1.9-.7-1.1-1.7-1.5-2.8-2.2h0Z"/>
      <path class="st1" d="M215.6,198.6c-3.1.2-6-.4-9.1-.5-.6,0-1,.6-.7,1.1,3,4.4,9.7,3.7,14.3,3,4.6-.7,9.2-1.9,13.4-4.1,4.4-2.3,7.8-5.7,10.2-10.1,2.6-4.7,5.2-10,6.4-15.2,1.2-5,.3-10.9-3.7-14.5-.6-.5-1.5.2-1.2.9,1.2,2.6,1.6,4.8,1.4,7.7-.2,2.9-.5,5.7-1.5,8.5-1,2.9-2.2,5.6-3.6,8.3-1.2,2.5-2.6,5.1-4.7,7.1-3.6,3.4-8.4,5.3-13.2,6.5-2.6.7-5.3,1.2-8,1.4h0Z"/>
      <path class="st1" d="M225.3,135.9c1.3.4,2.6,1.1,3.9,1.6,1.3.5,2.4,1.2,3.5,1.9,1.3,1,2.6,2,3.8,3.1.3.3.5.5.8.8.1.1.2.2.3.3,0,0,.3.3.4.3,0,.1.2.2.3.3.2.2.5.2.7.3.3.2.5.6.7.9.3.5,1,0,.9-.5,0-.3-.2-.6-.3-.9,0-.4,0-.8,0-1.2-.2-.8-.5-1.6-1-2.3-.8-1.3-1.7-2.5-2.8-3.6-2.1-2.1-5.2-3.9-8.1-4.5-1.3-.2-3.3-.5-4.5.2-.6.3-.9,1-.6,1.7.3.8,1.3,1.1,2.1,1.4h0Z"/>
      <path class="st7" d="M203,152.4c-2.2,2.4-3.4,5.6-3.3,8.9,0,5.6,5.3,13.8,11.8,11.8.6-.2.7-1,.2-1.4-1.8-1.5-3.8-2.7-5.3-4.5-1.5-1.7-2.5-3.9-2.5-6.2,0-2.2.9-4.4,2.2-6,.8-.9,1.5-1.8,2.5-2.5,1-.7,2-1.3,3-2,.6-.4.3-1.4-.4-1.5-3-.6-6.3,1.4-8.2,3.5h0Z"/>
      <path class="st7" d="M219,169.6c-.3.3-.6.6-.9.8-.6.5-.2,1.4.5,1.4.8,0,1.5-.2,2.2-.7.7-.4,1.2-.9,1.8-1.5,1.1-1.1,1.8-2.6,2-4.2,0-.8,0-2.2-.6-2.8-.3-.3-.8-.5-1.2-.3-.5.2-.8.8-.9,1.3,0,.7-.2,1.4-.4,2,0,0,0,.1,0,.2,0,0,0,0,0,0,0,.1-.1.3-.2.4-.1.3-.3.7-.4,1,0,.2-.2.3-.3.5,0,0-.1.2-.2.3-.2.3-.5.6-.7.9h0c0,.1-.2.2-.3.2,0,0-.1.1-.2.1,0,0-.2.2-.3.2q0,0,0,0h0Z"/>
      <path class="st0" d="M224.1,153.2c.8.1,1-1.1.2-1.2-.8-.1-1,1.1-.2,1.2Z"/>
      <path class="st5" d="M300.3,194.1c-.9-2.1-2.3-3.7-3.7-5.4-1.1-1.3-1.7-2.7-1.4-4.4.5-3.6,3-6.8,4.7-10,1.8-3.4,3.3-7.3,2-11.1-1.5-4.3-5.9-6.2-9.1-8.9-3.4-2.9-3.5-7-2.9-11.1.7-4.6,2.1-9.2,1.8-13.9-.3-5-3-9.2-7.3-11.8-3.3-2-8-3-11.6-1.2-2-2.1-3.3-4.7-3.3-7.5,0-2.5,1.4-4.8,1.1-7.3-.3-2.2-1.8-3.9-3.8-4.7-1.9-.8-4.2-.9-6.2-.6-2.3.3-4.5,1.1-6.8.7-2.3-.4-2.7-2.3-3-4.3-.3-2.2-.6-4.5-2.1-6.3-2.8-3.5-7.6-4.3-11.8-4.1-5.2.3-11,3.4-16.2,1.4-3.5-1.4-5.7-4.8-8-7.7-2.4-3.1-5.2-6.2-9.1-7.2-4.4-1.2-8.6.9-12.1,3.4-3.1,2.1-5.9,4.6-9.2,6.3-2.3-.7-4.2-2.3-6.1-3.8-2.7-2.3-5.6-4.7-9.1-5.6-3.7-.9-7.5.2-10.6,2.3-3.2,2.2-5.2,5.4-6.7,9-1.2,3.1-2.3,7.1-5.6,8.5-3.1,1.3-6.7.4-10,.1-3.5-.4-7.1-.3-10.3,1.4-2.6,1.5-4.4,3.8-5.9,6.4-1.7,2.9-2.8,6.2-4.3,9.2-.7,1.4-1.5,2.7-2.5,3.9-.9,1.1-1.9,2-3,2.9-3.7-.8-7.8-.5-11,1.2-4.5,2.3-7.4,6.8-6.7,12,.3,2.3,1.2,4.5,1.9,6.8.6,1.9.9,4.1,0,5.9-1.3,2.7-4.4,3.9-7,4.9-3.1,1.2-6.4,2.2-9,4.2-2.7,2.1-4.3,5.4-3.6,8.9.7,3.8,3.2,6.8,5,10.1.8,1.4,1.5,3,1.6,4.7,0,1.8-.9,3.2-2.1,4.5-2.9,3.1-7.4,5.6-7.7,10.4-.3,4.1,3,7.8,6.7,9.6.2.4.5.7.8,1.1.6,1,1.2,1.9,1.7,3,.8,2.1,1.2,4.4.9,6.7-.4,2.6-1.8,4.6-3.1,6.8-1.5,2.4-2.1,5.1-1.2,7.8,1.7,5,6.9,7.2,10.6,10.3,1.9,1.6,3.4,3.5,3.2,6.1-.2,3.1-1.5,5.9-.7,9,.7,2.9,2.7,5.4,5.2,7,3,2,6.2,2.7,9.8,3.1.7.8,1.5,1.4,2.4,2,2.2,1.3,4.9,1.5,7.4.7,2.6-.9,4.6-2.9,7-4.3,1.1-.7,2.3-1.1,3.6-1.2,1.4-.1,2.8.6,4.1.3-1.2,3.1-.8,6.9-1.3,10-.8,4.8-2.4,9.4-5.7,13.1-3.2,3.6-7.4,5.3-12.1,5.6-4.8.4-9.6.3-14.3,1.6-4.5,1.2-8.8,3.2-12.5,5.9-3.8,2.8-6.8,6.5-7.3,11.3-.5,4.6,1,9.5-.5,14-.6,2-1.8,3.6-3.8,4.4-1.9.8-4,1.2-5.9,2.2-3.8,2-6.8,5.2-8.6,9.1-1.7,3.6-2.7,8.7-.9,12.4.4.7,1.1.8,1.6.4.2,0,.3-.1.3-.3.9-2,1.9-3.9,3.4-5.5,1.4-1.6,3.1-3,4.9-4.3,3.5-2.5,7.4-4.4,10.9-7,3.4-2.6,6.3-5.7,7.5-9.9,1.4-4.5.8-9.5,2.5-14,3.2-8.6,14.2-9.4,22-10.9,4-.8,8.1-1.7,11.8-3.5,4-1.9,7.2-4.6,9.7-8.2,3.1-4.4,5.1-9.3,7.1-14.3.5-1.4,1.1-2.8,1.6-4.2.2-.4.3-.9.4-1.3,0,0,.1,0,.2,0-.3.9-.5,1.9-.6,2.8-.2,2,0,4.2,1.4,5.9,1.4,1.8,3.7,2.6,4.9,4.5,1.3,2,.7,4.3,1.2,6.4.9,3.9,4.5,6.3,8.3,7.1,4.7,1,9.3-.8,13.8-1.8,2.3-.5,4.5-.8,6.9-.4.7.1,1.4.3,2.1.5.2.2.5.4.6.7.4.8,1,1.3,1.7,1.8,1.3,1.1,2.5,2.4,3.8,3.5,2.5,2.4,5,4.8,8,6.5,2.8,1.6,6.1,2.2,9.3,1.6,3-.6,5.8-2,8.5-3.5,2.5-1.4,5.1-3,7.9-3.5,1.2-.2,2.5-.3,3.7,0,1.8.5,3.2,1.8,4.6,2.9,3.3,2.5,7.1,3.7,11.3,3.7,3.9,0,8-1.2,11.5-2.9,3.7-1.8,7.3-4.5,8.7-8.5.6-1.9.7-3.8.5-5.8,1.9-1.5,5-1.2,7.3-1.2,3.3,0,6.3-.1,9.3-1.7,6.1-3.2,9.8-9.6,9.3-16.5-.3-3.6-1.5-7.2-1.5-10.9,0-1.6.4-3.1,1.3-4.4.9-1.2,2.1-2,3.3-2.8,2.5-1.7,5-3.6,5.7-6.7.9-3.9-1.9-6.9-3.1-10.3-.5-1.6-.7-3.4.9-4.4,1.7-1,3.2-1.8,4.4-3.5,1.5-2.3,2.6-5.5,2.6-8.4,1.8-1.4,3.2-3.2,4.1-5.5,1.6-3.8,1.7-8.4.2-12.2h0ZM134,263.1c-.5,1.3-1,2.6-1.5,4-1.6,4.2-3,8.7-5.7,12.5-5.2,7.3-13.7,9.1-21.9,10.6-7.6,1.5-16.9,3.1-20.6,10.9-2,4.2-1.8,9-2.9,13.4-1,4.3-3.5,7.6-7,10.2-3.8,2.8-8.1,4.9-11.8,7.8-2.3,1.8-4.6,4.1-5.9,6.8,0-.6,0-1.1.1-1.7.2-1.7.7-3.4,1.5-5,1.5-3.3,4-6.2,7.3-7.8,1.8-.9,3.9-1.3,5.8-2.1,1.9-.9,3.4-2.2,4.4-4,2.2-3.9,1.7-8.6,1.5-13-.1-2.4,0-5,.9-7.2.9-2,2.5-3.7,4.2-5.1,3.5-2.8,7.7-4.9,12-6.1,4.6-1.3,9.2-1.3,13.9-1.8,4.4-.5,8.5-2,11.9-4.9,3.8-3.3,6.3-7.8,7.8-12.6.8-2.6,1.1-5.3,1.3-8,.1-1.9.2-3.7.8-5.4.2.4.4.7.6,1.1.8,1.1,1.8,2,2.8,2.8.5.3,1,.6,1.4.9.1.2.2.4.2.6,0,1-.8,2.3-1.1,3.2h0ZM296.7,204.3c-.2,0-.4.3-.6.5,0,.1-.1.2-.2.4,0,0-.2.4,0,.2-.1.2-.2.3-.3.5,0-.2,0,.1-.1.1-.1.2-.2.4-.3.6,0,0,0,.2-.1.2-.1.2-.3.4-.4.6-.1.2-.2.3-.3.5,0,0,0,.1-.1.2,0,.1-.2.2-.3.4-.4.1-.7.4-.9.7,0,.2-.2.4-.2.5-.4.3-.8.7-1.3,1-.1,0-.2.1-.4.2,0,0,0,0,0,0,0,0,0,0,0,0-.2.1-.5.2-.8.4-.5.2-1,.4-1.5.5-.1,0-.3.1-.4.1-.1,0-.2,0-.3.1-.4.1-.8.3-1,.7-.3.4-.4,1,0,1.4.9,1.3,3.3.7,4.6.2,0,0,.2,0,.2,0-.3,1.3-.6,2.6-1.5,3.7-1,1.3-2.4,1.8-3.7,2.7-1.5,1-2.5,2.7-2.6,4.5-.3,3.8,2.2,6.5,3.4,10,1,3.1-1.4,4.8-3.7,6.4-2.7,1.9-5.2,3.9-6.1,7.3-1,3.4-.2,7.1.5,10.5.6,3.3,1.1,6.6-.2,9.8-1.1,2.8-3.2,5.2-5.8,6.8-3,1.9-6.4,1.8-9.8,1.9-2.2.1-4.3.5-6,1.7,0-1.4,0-2.7.6-3.8,1-1.5-.9-3.1-2.2-1.8-2.8,2.9-2,6.8-2,10.4,0,3.5-2.1,6-5,7.8-3,1.9-6.7,3.1-10.3,3.5-3.9.4-7.4-.4-10.6-2.8-2.8-2.2-5.6-4-9.2-3.9-2.8,0-5.5,1.2-7.9,2.5-4.8,2.5-10.2,6.5-15.8,4.3-3.3-1.3-6-3.8-8.6-6-1.3-1.1-2.5-2.2-3.9-3.1-1-3.2-5.5-4.7-8.5-4.9-4.6-.3-8.9,1.5-13.4,2.2-3.3.5-7.6.2-9.8-2.7-1.2-1.7-.8-3.8-1.2-5.8-.4-2.1-1.5-3.9-3-5.4-1.7-1.5-3.9-2.4-4-4.9,0-.9.2-1.8.4-2.7,1.3.7,2.7,1.3,4.1,1.9,1.5.6,2.9,1.1,4.5,1.5.7.2,1.3.3,2,.3.4,0,.9,0,1.3,0,.2,0,.3,0,.4,0,4.1,2.4,8.2,4.6,12.7,6.3,5,1.9,10.3,3.3,15.6,4.3,10.5,2,21.5,2.2,32.1.3,18.3-3.3,35.4-13,47.3-27.3,6.4-7.8,11-16.8,13.9-26.5,3.1-10.2,5-20.7,5.6-31.3,1-20.2-2.7-41.1-14-58.2-5.2-7.9-11.9-14.9-19.7-20.3-7.7-5.4-16.7-9.7-26.2-10.6-2.3-.2-4.6-.2-6.9,0-1.9.2-1.8,2.9,0,3.2,8.6,1.8,17.2,4.2,24.9,8.5,7.7,4.3,14.5,10.4,19.9,17.3,11.8,15.1,16.7,34.3,16.8,53.2,0,9.7-1.2,19.5-3.3,28.9-2.2,9.8-5.6,19.3-11.3,27.5-9.8,14.2-24.9,24.3-41.5,28.9-9.5,2.6-19.7,3.3-29.6,2.4-10.3-1-20-3.9-29.7-7.5-2.4-.9-4.8-1.8-7-2.9-.5-.2-1-.2-1.3,0-.3-.1-.6-.2-.9-.3-1.3-.4-2.6-.9-3.9-1.4-1.3-.5-2.6-1.1-3.8-1.7,0,0,0,0,0,0-.2-.2-.5-.5-.8-.6-.2-.2-.5-.3-.7-.5-.1-.1-.3-.2-.5-.3-.2-.1-.4-.2-.7-.4-.3-.1-.6-.3-.9-.4-.1,0-.2,0-.3-.1-.5-.4-1.1-.8-1.6-1.2-1.3-1-2.5-2-3.9-2.9,0,0,0,0,0,0-.2-.2-.4-.4-.7-.6,0,0,0,0,0,0,0,0,0-.1-.1-.2-.1-.2-.2-.3-.4-.5,0-.1,0-.3,0-.4-.7-1.4-2.1-2.4-3.4-3.3-1.3-1.1-2.7-2.1-4-3.1-1.2-.9-2.4-1.6-3.6-2.4-.6-.4-1.3-.8-1.9-1.3-.1-.2-.3-.3-.4-.5-1.6-1.9-3.1-3.8-4.6-5.8-1.5-2.1-3.3-4-4.8-6.1-.9-1.1-3-.1-2.3,1.3,1.2,2.4,2.3,4.9,3.8,7.2,1.4,2.2,3,4.4,4.7,6.4,1.7,2,3.6,4.1,5.7,5.6.4.3.8.6,1.2.8-.9.1-1.7.3-2.3.4-2.5.7-4.5,2.5-6.7,3.9-1.9,1.3-3.8,2-6,1.4-1.9-.5-3.9-2-4.9-3.7-.5-.9-2-.2-1.8.7,0,.2,0,.4,0,.6-.6-.3-1.1-.5-1.7-.7-1.4-.6-2.9-1.2-4.2-2-2-1.3-3.8-3.4-4-5.9-.3-3,1.3-5.9.9-8.9-.3-2.5-1.7-4.6-3.5-6.4-3.3-3.2-9.1-5.1-10.6-9.7-.8-2.5,1-4.7,2.2-6.7,1.3-2.1,2.2-4.5,2.3-7.1.1-2.7-.3-5.3-1.6-7.7-.3-.6-.8-1.4-1.3-2.2.5-.6.5-1.7-.2-2.3-2.4-2.1-7.7-3.9-6.8-8,.3-1.6,1.6-2.9,2.8-4,1.3-1.3,2.7-2.5,3.9-3.8,2.5-2.9,3.4-6.4,2.1-10.1-1.2-3.3-3.5-6-5.1-9.2-1.3-2.6-1.7-5.6.6-7.8,2.1-2.1,5.1-2.9,7.8-3.9,2.9-1.1,5.9-2.2,8.3-4.3,3.1-2.8,3.4-6.8,2.4-10.7-.6-2.4-1.7-4.7-1.9-7.1-.2-2.4.8-4.6,2.5-6.3,1.9-1.9,4.4-2.8,7-3.1,2.9-.4,5.9.3,8.8.5,1,0,1.2-1.1.5-1.5-.4-.3-.9-.5-1.4-.7,1.5-1,2.8-2.4,3.8-3.9,1.7-2.5,2.9-5.3,4.2-8.1,1.2-2.5,2.4-5.1,4.4-7,2.3-2.2,5.3-2.5,8.3-2.3,3.5.3,7,1.2,10.5.6,3.9-.6,6.7-3,8.5-6.4,1.7-3.2,2.4-7,4.8-9.9,2.2-2.6,5.5-4.5,9-4.4,5.5.1,9.5,6.1,14.5,7.9,0,.6.4,1.1,1.1,1,.8,0,1.5-.3,2.2-.5.8,0,1.5-.2,2.3-.5.3-.1.5-.4.5-.7,2-1,3.8-2.3,5.5-3.5,2.9-2,6.2-4.6,9.9-4.4,3.7.1,6.3,3,8.4,5.8,2.4,3.2,4.7,6.6,8.1,8.7,4.9,3,10.5,1.6,15.7.5,3.7-.8,8.7-1.5,11.8,1.3,1.5,1.4,1.6,3.4,1.9,5.3.3,2.3,1,4.6,2.9,6.1,2,1.5,4.6,1.6,6.9,1.4,2.1-.2,4.1-.9,6.2-.8,2,.1,4,.8,3.6,3.1-.2,1.3-.8,2.6-.9,3.9-.2,1.3-.2,2.7,0,3.9.9,5.1,4.6,9.6,9.9,10.3,1.2.2,1.8-1.4.9-2.1,2,.2,4,.6,5.9,1.7,3.3,1.9,5.2,5.2,5.4,8.9.5,8.2-5,17,0,24.7,2.3,3.6,6.5,5,9.2,8,2.4,2.6,1.7,5.8.3,8.7-1.6,3.3-3.8,6.2-5,9.6-1.4,3.9-1,7.5,1.8,10.6,1.5,1.7,2.8,3.3,3.3,5.5.5,1.9.4,3.9,0,5.7-.1.5-.2,1.1-.4,1.6h0Z"/>
      <path class="st1" d="M89.7,166c.4.4,1.2.6,1.7.2.5-.4.6-1,.5-1.6,0-.7-.2-1.4-.3-2.2,0-.3,0-.7,0-1v-.3h0v-.2c0-.1,0-.2,0-.3,0-.8.2-1.7.4-2.5,0,0,0,0,0-.1,0-.1,0-.3.1-.4,0,0,0,0,0,0,0,0,0-.2,0-.3.2-.5.2-.8.4-1.3.5-1.3-1.1-2.3-2.1-1.3-1.1,1.2-1.8,2.7-2.1,4.4-.3,1.5-.3,3.3,0,4.8.2.8.5,1.7,1.1,2.3h0Z"/>
      <path class="st1" d="M89.8,172.3c-.7.2-1.3.7-1.8,1.3-.2.3-.4.6-.6.9-.2.4-.2.8-.2,1.2,0,.5,0,.9.4,1.3.2.3.6.4,1,.3.3-.1.5-.5.5-.8,0-.1,0-.3,0-.4,0-.2,0-.3,0-.5,0-.1,0-.3,0-.4h0c0,0,0-.2,0-.2,0-.1.1-.3.2-.4,0,0,0,0,0,0,0,0,.1-.1.2-.2,0,0,.1-.1.2-.2,0,0,0,0,0,0,0,0,.1-.1.2-.1,0,0,0,0,.1,0,0,0,0,0,0,0,.4-.2.6-.6.4-1.1-.2-.4-.7-.6-1.1-.5h0Z"/>
      <path class="st1" d="M102.5,129.9c0,.4.6.6.9.6.4,0,.8-.2.9-.6,0,0,0-.1,0-.1,0,0,0,0,0,0,0,0,0,0,0,0,0,0,0-.2.1-.3,0,0,.1-.1.2-.2,0,0,0,0,0-.1,0,0,0,0,0,0,.2-.3.4-.5.6-.7.2-.2.5-.4.7-.5.3-.2.7-.3,1-.4-.1,0-.2,0-.3,0,.3,0,.7-.2.9-.3.4-.2.7-.5.7-.9,0-.4,0-.9-.4-1.1-.4-.3-.9-.4-1.4-.4-.3,0-.5,0-.8.1-.6.2-1.2.4-1.7.8-.4.3-.8.7-1.2,1.2-.2.3-.3.6-.5.8,0,.2-.1.3-.2.5,0,.2,0,.3,0,.5,0,.2,0,.4,0,.6,0,.2,0,.4.1.6h0Z"/>
      <path class="st1" d="M123.5,109.5s0,0,0,0c0,0,0,.2,0,.2,0,0,0,.1,0,.1,0,.6,1,1,1.4.4,0,0,0-.1.1-.2,0,0,.1,0,.2-.2,0,0,0,0,0-.1,0,0,.1-.1,0,0-.2.1.1-.1.2-.2,0,0,.1-.2.2-.3,0,0,0,0,0-.1,0,0,0,0,0,0,0,0,0,0,0,0,.2-.3.5-.7.8-1,.1-.2.3-.3.4-.4,0,0,0,0,0,0,0,0,0,0,0,0,0,0,0,0,0,0,.2-.2.4-.4.6-.6,0,0,0,0,0,0,.1-.1.3-.3.4-.4.2-.2.3-.6.2-.9,0-.3-.2-.5-.4-.8-.3-.3-.8-.3-1.2-.2-.9.3-1.7.9-2.3,1.7-.3.4-.5.8-.7,1.2,0,.2-.1.3-.2.5,0,.3-.1.5-.2.7h0c0,.2,0,.4,0,.6h0Z"/>
      <path d="M125.7,109.3c0,0,0,.1,0,0h0Z"/>
      <path d="M164.8,90.1s0,0,.2,0h0s0,0-.2,0h0Z"/>
      <path class="st1" d="M158.8,92.2c0,.2,0,.3.1.5,0-.4,0,.2,0,.3,0,0,0,.2.1.3.3.9,1.6.7,1.8-.2,0,0,0-.2,0-.2h0s0,0,0,0c0-.1,0-.3.2-.4,0,0,0,0,0,0,0,0,0-.1,0-.2.1-.3.3-.6.5-.9,0,0,0,0,0,0,0,0,0-.1.1-.2.1-.2.2-.3.4-.4h0c0,0,.1-.1.2-.2.1-.1.3-.2.4-.3h0c0,0,.1,0,.2,0,.1,0,.3,0,.4-.2,0,0,0,0,0,0,0,0,.2,0,.3,0s.2,0,.3,0h0c.3,0,.5,0,.8.1,0,0,0,0,.2,0h0,0c.2,0,.3.1.5.1s.4,0,.6.1c.4,0,.8,0,1.1-.4.2-.3.4-.8.2-1.2-.6-1.1-1.8-1.7-3.1-1.7-1.2,0-2.3.2-3.3.8-.8.5-1.5,1.4-1.9,2.3-.2.5-.3,1-.3,1.5,0,.2,0,.4,0,.5h0Z"/>
      <path class="st1" d="M92.7,216.1c.1,0,.2.1.3.2-.2-.1-.4-.3-.6-.5-.2-.2-.3-.4-.4-.6-.2-.3-.3-.7-.4-1.1,0,0,0-.1,0-.2,0-.1,0-.3,0-.4,0-.2,0-.4-.2-.5,0-.2-.2-.3-.3-.4-.1-.1-.3-.2-.5-.2-.2,0-.5.1-.6.3-.2.1-.4.3-.5.5-.1.3-.2.6-.3,1,0,.3,0,.7,0,1.1,0,.7.4,1.4.8,2,.3.5.8,1,1.3,1.3.2.1.4.2.6.4.3.1.7.2,1,.2.4,0,.8-.1,1.1-.3.2-.1.4-.5.5-.7,0-.3,0-.6-.2-.9-.4-.5-.9-.8-1.4-1.1h0Z"/>
      <path class="st1" d="M97.2,232.3c-1.3-.2-1.7,1.9-.3,2.1,1.3.2,1.7-1.9.3-2.1Z"/>
      <path class="st1" d="M245.6,273.6c-.2-.1-.3-.2-.5-.2-.2,0-.3,0-.5,0-.2,0-.5,0-.7.1-.5,0-1,.2-1.5.2-.2,0-.5,0-.7,0h-.2c-.1,0-.2,0-.4,0-.5,0-1,0-1.5-.2-.4-.1-.8.2-.8.5-.1.4,0,.7.4.9.5.3,1,.5,1.6.7.6.2,1.2.2,1.8.2s1.2,0,1.7-.2c.6-.2,1.5-.6,1.6-1.3,0-.2,0-.6-.3-.7h0Z"/>
      <path class="st1" d="M285.4,176.3c1-1.4,1.3-3.4,1-5.1-.2-.9-.5-1.8-1-2.5-.1-.1-.2-.3-.3-.4-.1-.1-.4-.5-.6-.6h0s0,0-.1,0c-.1,0-.3-.2-.4-.2-.2,0-.3-.2-.5-.3-.9-.4-1.8.7-1.2,1.5,0,.1.2.2.3.4h0s0,0,0,.1c0,0,0,.1.1.2,0,0,0,.2.1.3,0,0,0,0,0,0,0,.1.1.3.2.4.1.3.2.6.3.9,0,0,0,.2,0,.3s0,.1,0,.2c-.1-.4,0,.1,0,.2,0,.2,0,.3,0,.5,0,0,0,.2,0,.2h0c0,.2,0,.3,0,.4,0,.2,0,.3,0,.5,0,0,0,.1,0,.2,0,0,0,.1,0,.2,0,0,0,.1,0,.2-.1.3-.3.6-.4.9-.4.7,0,1.6.6,1.9.6.4,1.6.3,2-.3h0Z"/>
      <path class="st1" d="M280,135.7c-.3-.9-.8-1.9-1.4-2.7-.6-.8-1.3-1.7-2.2-2.2-.7-.3-1.4.4-1.1,1.1.3.8.9,1.5,1.3,2.2.4.8.8,1.6,1.2,2.5.7,1.6,1.2,3.3,1.3,5.1,0,.9,1.5,1,1.7,0,0-1,.1-2,0-3,0-1-.3-2.1-.7-3h0Z"/>
      <path class="st1" d="M237.5,93.5c-1-.7-2.2-1.3-3.5-1.4-.6,0-1.2,0-1.8.1-.3,0-.6.2-1,.3-.3.1-.5.3-.7.6,0,0,0,0,0,0,0,0-.1.2-.2.3-.2.4,0,.9.4,1,0,0,0,0,0,0,0,0,0,0,0,0,.2,0,.3.2.5.2.2,0,.3,0,.5,0h.3c0,0,.2,0,.3,0,.2,0,.4,0,.6,0,.4,0,.8.1,1.1.2,0,0,0,0,.1,0,0,0,.2,0,.2,0,.2,0,.4.2.6.2.2,0,.3.2.5.3,0,0,0,0,0,0,0,0,.1,0,.2.1.3.2.7.5.9.7,0,0,0,0,.1.1,0,0,0,.1.1.1.1.2.2.3.3.5,0,.1.2.2.2.3,0,0,0,0,0,0h0c-.6-.2-1,.7-.5,1.1.2.2.6.3.9.3.1,0,.3,0,.4,0,.2,0,.3,0,.5-.1.8-.3.9-1.4.8-2.1-.2-1.2-1.3-2.5-2.3-3.2h0Z"/>
      <path class="st1" d="M197,85.4c.4.2.7.4,1.1.6s.8.3,1.2.5.8.4,1.2.6c.2,0,.4.2.5.3,0,0,.2,0,.1,0,0,0,.2.1.3.2.4.2.9.3,1.2-.1.3-.3.3-.9-.1-1.2-.8-.6-1.6-1.1-2.5-1.4-.4-.2-.8-.4-1.2-.5-.5-.2-1-.2-1.5-.2-.7,0-.9.8-.3,1.1h0Z"/>
      <path class="st1" d="M266.8,254.9c-.2,0-.4,0-.5,0-.2,0-.4,0-.7,0-.4,0-.9,0-1.3,0h0c-.2,0-.4,0-.6,0h0c-.1,0-.2,0-.4,0-.4,0-.9-.1-1.3-.2-.5-.1-.9.2-1,.7-.1.4,0,.9.5,1.1s.9.4,1.3.5c.3,0,.4.1.2,0,0,0,.1,0,.2,0,.2,0,.3.1.5.1.2,0,.5.1.7.1.5,0,.9.1,1.4.1.9,0,1.8,0,2.3-.9.2-.4.1-.9-.1-1.2-.3-.3-.5-.5-.9-.6h0Z"/>
      <path class="st1" d="M171.2,210.4c-2.1-2.1-5.2-2.1-8-1.6-3.1.5-5.8,1.7-8.5,3.4-.1,0-.2.2-.3.3-.5.2-1.1.5-1.6.8-4.2,2-8,4.6-11.5,7.7-3.5,3.1-6.6,6.7-9.2,10.7-1.4,2.2-2.6,4.4-2.5,7.1,0,2.4,1.2,4.8,2.6,6.8,2.9,4.2,7.1,7.6,11.5,9.9,2.3,1.2,4.7,2.1,7.1,2.7,2.6.6,5,.4,6.8-1.6,1.8-1.9,3.1-4.3,4.3-6.6,1.3-2.4,2.5-4.9,3.6-7.5,2.3-5.4,4.5-10.9,6.1-16.5,1.3-4.6,3.3-11.6-.6-15.5h0ZM169,224.5c-1.3,5-3.2,9.9-5,14.7-1.7,4.6-3.7,9.1-6.5,13.1-.6.8-1.1,1.7-1.9,2.4-.9.8-2,.8-3.1.6-2.2-.4-4.4-1.2-6.4-2.2-4-1.9-7.7-4.7-10.4-8.2-1.3-1.6-2.5-3.5-2.7-5.6-.3-2.2.8-4.2,2-6,2.2-3.4,4.8-6.6,7.8-9.3,3.4-3.1,7.1-5.8,11.2-7.9,2.9-1.5,6-2.6,9-3.8,1.9-.4,4.6-.9,6,.6,1.1,1.1,1.3,3.1,1.2,4.6,0,2.4-.6,4.8-1.2,7.1h0Z"/>
      <path class="st1" d="M155.9,245.4c-.5,0-.8.3-1,.7,0,0,0,0,0,0,0,0,0,0,0,0,0,0-.2.2-.3.3h0s-.2.2-.2.3c-.2.2-.3.4-.5.6-.3.4-.6.8-1,1.1-.4.4-.8.8-1.2,1.2-.2.2-.4.4-.6.6,0,.1-.2.2-.3.3,0,0,0,0,0,.1,0,0,0,0-.1.1-.7.6-.1,1.6.7,1.3,0,0,0,0,.2,0h0c.2,0,.3,0,.5-.1.2,0,.5-.2.7-.3.5-.2,1-.5,1.5-.9.5-.4.9-.8,1.3-1.3.4-.4.8-.9,1-1.4,0-.1,0-.3.2-.4,0,.3,0,.1,0,0,0,0,.2-.6.2-.6,0,0,0,0,0,0,0,.2,0,0,0-.2,0,0,0-.1,0-.2,0-.2,0-.5,0-.7-.2-.4-.5-.7-1-.6h0Z"/>
      <path class="st1" d="M162.4,232.6c-.1.1-.3.2-.4.4-.1.1-.2.3-.3.4-.2.3-.3.6-.5,1-.3.6-.7,1.2-1,1.9-.2.4.4.7.6.4.4-.6.7-1.2,1.1-1.8.2-.3.4-.6.6-.9,0-.1.2-.3.2-.5,0-.2,0-.4.1-.5,0-.3-.3-.5-.5-.3h0Z"/>
      <path class="st1" d="M293.3,196.6c-.4,0-1,.2-1.1.6,0,.2-.1.4-.1.7,0,.2,0,.4,0,.5,0,.2,0,.5,0,.7,0,.3,0,.6,0,.8v.2h0c0,.1,0,.2,0,.3,0,.3,0,.5-.1.8,0,0,0,.1,0,.2h0c0,.1,0,.2,0,.3,0,.1,0,.2-.1.4,0,0,0,0,0,.1,0,.3,0,.3,0,.2q0,0,0,0s0,0,0,.1c0,0,0,0,0,0,0,.1-.2.2-.3.3-.2.2-.2.6,0,.8.2.2.5.3.8.2.6-.2,1.2-.5,1.7-.9.3-.3.5-.5.7-.8.3-.4.5-.8.6-1.3.2-.8.3-1.6,0-2.4-.2-.9-.9-1.8-1.8-1.9h0Z"/>
      <path class="st1" d="M287.6,197.9c0-.2-.2-.3-.2-.4-.2-.3-.3-.6-.5-.9-.3-.6-.7-1.2-1-1.9,0-.2-.4-.3-.5-.3-.2,0-.4,0-.5.1-.3.2-.6.7-.4,1,.3.6.7,1.2,1,1.9.2.3.3.6.5.8,0,.1.2.3.3.4.1.2.3.3.4.4.2.2.5.2.7,0,.2-.1.4-.4.3-.6,0-.2,0-.4-.1-.6h0Z"/>
      <path class="st1" d="M277.1,230.4c-.3-.3-.9-.2-1.1.1-.1.2-.2.4-.2.6,0,.2.1.4.3.5,0,0,0,0,0-.1,0,0,0,.1.1.2,0,0,0,0,0,.1,0,0,0,.1,0,.2,0,.1,0,.2,0,.4,0,0,0,0,0,.1,0,0,0,0,0,.1,0,.1,0,.2,0,.3v-.2c0,.1,0,.2,0,.4,0,.2,0,.4,0,.6.1.2.3.2.5.2.4,0,.8-.2,1-.5.2-.3.4-.7.4-1,0-.8-.2-1.5-.7-2h0Z"/>
      <path d="M103.7,241.3h0c0,0,0,0,0,0h0s0,0,0,0Z"/>
      <path class="st1" d="M104.9,245.4c0-.1,0-.2-.1-.3,0-.1-.2-.3-.2-.4,0,0,0,0,0,0,0,0,0-.1,0-.1-.2-.5-.4-1-.5-1.5,0,0,0-.2,0-.3,0,0,0-.1,0-.2,0-.3,0-.5,0-.8,0-.1,0-.2,0-.3h0s0,0,0,0h0c0-.1,0-.1,0,0h0c0-.5,0-.9-.1-1.3-.3-.8-1.5-1-2-.3-.5.7-.5,1.5-.4,2.4,0,.6.2,1.3.4,1.9.2.6.6,1.1,1,1.6.4.5,1,1.2,1.7,1.2.5,0,.9-.3.8-.8,0-.1,0-.3,0-.4h0Z"/>
      <path class="st1" d="M171.8,276.2c-.2,0-.3,0-.5.1,0,0,0,0,0,0,0,0-.2,0-.3,0,0,0-.3,0-.3,0-.1,0-.2,0-.4,0-.1,0-.3,0-.4,0h0c0,0-.1,0-.2,0-.2,0-.3,0-.5,0,0,0-.1,0-.2,0h0s0,0,0,0c-.7-.2-1.3-.6-2-1-.7-.4-1.5-.6-2.3-.9-.3-.1-.7,0-.9.3-.2.3-.1.7.2.9.8.5,1.3,1.3,2,1.8.8.6,1.6,1,2.5,1.3,1.5.4,4,.1,4.2-1.8,0-.5-.3-1-.8-.9h0Z"/>
      <path class="st1" d="M202.8,285.5c-.5-.1-1,0-1.5,0-.1,0-.2,0-.4,0h-.1,0,0c-.1,0,0,0,0,0,0,0-.6,0-.7,0-.2,0-.5,0-.7-.1,0,0,0,0-.2,0h0c0,0-.2,0-.3-.1-.5-.2-.8-.2-1.2-.6-.5-.4-1.1.2-.8.7.1.2.3.4.5.6,0,0,0,0,0,0h0c0,.1.1.2.2.3,0,0,.2.2.3.3.4.3,1,.6,1.5.8.6.2,1.3.3,1.9.2.7,0,1.4-.3,1.8-.9.3-.5.1-1.2-.5-1.3h0Z"/>
      <path d="M200.8,285.6h0,0Z"/>
      <path class="st1" d="M228,281.8c-.2-.1-.3-.3-.5-.3-.2,0-.3-.1-.4-.2-.2-.1-.4-.2-.6-.3-.3-.2-.5-.4-.7-.6,0,0,0,0,0-.1h0s0,0,0-.1c-.1-.1-.2-.3-.3-.5,0,0,0,0,0-.1,0,0,0,0,0,0,0,0,0-.1-.2-.2,0-.2-.2-.3-.2-.5,0,0,0-.1,0-.2,0-.1-.1-.2-.2-.3,0,0,0,0,0,0h0s0,0,0,0c-.3-.3-.7-.3-1,0-.2.2-.3.5-.3.7,0,.2,0,.3,0,.5s0,.2,0,.4h0v.2s0,.1,0,.2c0,.2,0,.4.2.6.2.6.6,1.2,1.1,1.6.4.4.9.7,1.4.9.3.1.6.2,1,.2.2,0,.4,0,.6,0,.2,0,.4-.1.5-.2.3-.2.5-.4.6-.7,0-.3,0-.7-.3-.9h0Z"/>
      <path class="st1" d="M236,286.6c0,0-.1,0-.2,0,0,0,0,0-.1,0,0,0,0,0,0,0,0,0,0,0,0,0-.1,0-.3.1-.4.2,0,0-.1,0-.2,0,0,0,0,0,0,0,.1,0,0,0,0,0,0,0-.2,0-.3,0,0,0,0,0,0,0,0,0,0,0,0,0-.1,0-.3,0-.4,0,0,0-.2,0-.2,0h0c-.1,0-.3,0-.4,0,0,0-.2,0-.2,0,0,0,0,0,0,0h0s0,0,0,0c-.3,0-.6,0-.7.3,0,.3,0,.6.3.7.7.3,1.4.4,2.1.3.3,0,.7-.1,1-.3.4-.2.7-.4.9-.7.2-.4,0-.9-.5-.7h0Z"/>
      <path class="st1" d="M101.6,144.2c.2-.1.3-.4.4-.6,0-.2,0-.4-.1-.6,0-.2,0-.3-.2-.5,0,0,0-.1,0-.2,0,0,0-.1,0-.1,0-.2,0-.4,0-.5,0-.1,0-.2,0-.3h0c0,.1,0,0,0-.1,0-.2,0-.4,0-.6,0,0,0,0,0,0,0,0,0,0,0,0,0-.1,0-.2.1-.3,0,0,0,0,0-.1h0c0-.1.1-.2.2-.3,0,0,.2-.2.2-.2,0,0,0,0,0,0,0,0,0,0,.1-.1.3-.3.5-.8.2-1.1-.3-.3-.8-.4-1.1-.2-1.4,1-2.2,2.9-1.8,4.6.1.5.3,1,.6,1.4.3.4.9.6,1.3.3h0Z"/>
      <path class="st1" d="M138.9,100.9c1.1.4,3,.7,3.6-.7.2-.4,0-.9-.3-1.2-.4-.2-.8-.4-1.2-.4,0,0-.4,0-.2,0s0,0-.2,0c-.3,0-.5,0-.8,0,0,0-.1,0-.2,0-.1,0-.3,0-.4-.2-.1,0-.2-.1-.4-.2,0,0-.1,0-.2,0,0,0,0,0-.1,0s0,0,0,0c0,0,0,0-.2-.1,0,0-.2-.1-.3-.2,0,0,0,0,.1,0,0,0-.1,0-.2-.1-.3-.2-.8-.3-1.2,0-.3.3-.5.7-.3,1.1.4,1,1.3,1.8,2.3,2.1h0Z"/>
      <path class="st1" d="M260.9,266.1c-.5.2-1,.6-1.3,1.1-.1.2-.3.3-.4.5,0,.1-.2.3-.3.4,0,.1-.1.2-.1.3,0,.3-.2.5-.3.8-.1.3,0,.6.2.8.3.2.6,0,.8-.1,0,0,0-.1.2-.2,0,0,0-.1,0,0,0,0,0,0,0,0,0,0,.2-.1.3-.2,0,0,0,0,.1,0,0,0,0,0,.1-.1,0,0,.2-.1.2-.2.2-.1.3-.3.5-.4.2-.1.3-.3.5-.4.1-.1.2-.2.4-.4,0,0,.2-.1.2-.2.3-.3.3-.9,0-1.2-.3-.3-.8-.5-1.2-.3h0Z"/>
      <path class="st1" d="M233.7,254.6c-.6.3,0,1.2.6,1,1.7-.6,3.4-1,5.1-1.9,1.7-.9,3.2-2,4.7-3.2,1.4-1.2,2.8-2.5,4-3.9.6-.7,1.2-1.5,1.7-2.3.4-.7.9-1.8.8-2.6,0-.6-.6-.8-1.1-.7-.8.2-1.5,1.1-2.1,1.7-.6.6-1,1.3-1.6,1.9-1.1,1.3-2.3,2.6-3.6,3.7-1.3,1.2-2.7,2.2-4,3.3-1.4,1.1-2.8,2.2-4.3,3h0Z"/>
      <path class="st1" d="M257.2,230.4c.3.3.9.2,1.2-.1.6-.8,1.1-1.6,1.6-2.4.5-.9.8-1.7.9-2.7,0-.3-.1-.6-.5-.7-.3,0-.6,0-.8.4-.2.4-.4.7-.6,1.1-.2.4-.4.8-.6,1.2-.4.8-.8,1.4-1.3,2.1-.2.4-.2.9.1,1.1h0Z"/>
      <path class="st1" d="M139.4,119.2c-1,.5-1.9,1.3-2.7,2-.8.8-1.6,1.6-2.4,2.4-.8.9-1.5,1.8-2.2,2.8-.7,1-1.2,2.2-1.9,3.3-.5.9.9,1.7,1.5.9.7-.8,1.5-1.5,2.2-2.3.8-.8,1.5-1.5,2.3-2.3,1.5-1.4,3.2-2.7,4.6-4.1.7-.7,2.1-1.9,1.5-2.9-.6-1.1-2.2-.2-3,.1h0Z"/>
      <path d="M159.5,112.2c-.2,0-.4.1-.6.2-.2,0-.5.2-.7.3-.4.2-.8.5-1.2.7-.2,0-.3.4-.3.6,0,.2,0,.5.2.7.1.2.3.3.6.3s.5,0,.7-.2c.2-.1.4-.2.5-.4.2-.1.4-.2.6-.4.2-.1.3-.3.5-.4.2-.2.4-.4.6-.6.2-.2.2-.5,0-.7-.2-.2-.4-.3-.7-.2h0Z"/>
      <path class="st1" d="M114.1,227.1c-.2-.5-.4-1-.6-1.5-.2-.5-.4-1.2-1-1.4-.3-.1-.6,0-.7.3-.3.5,0,1.2.2,1.7.2.5.4,1.1.6,1.6.5,1,.9,2,1.4,3,.3.7,1.3.3,1.1-.4-.3-1-.7-2.1-1-3.1h0Z"/>
      <path class="st1" d="M110.2,161.2c-.8.7-1,2-1.1,3s-.3,2-.5,3c-.1,1-.2,2-.2,3.1s0,1,0,1.4c0,.5.2,1,.2,1.5,0,.6.9.7,1.1.2.2-.5.5-.9.7-1.4.2-.4.3-.8.4-1.2.3-1,.5-2.1.7-3.1.2-1,.3-1.9.5-2.9.2-1,.4-2.4-.2-3.3-.3-.5-1.2-.6-1.7-.3h0Z"/>
      <path class="st1" d="M267.2,217.1c.5-.4.9-.9,1.3-1.4.4-.5.8-1.2.9-1.9,0-.4,0-.9-.2-1.2-.2-.2-.4-.3-.7-.3-.3,0-.5.3-.7.6,0,0,0,.1-.1.2,0,0-.1.2,0,0,0-.2,0,.1,0,.1,0,0,0,.1,0,.2,0,0,0,.1,0,.2-.1.3-.2.5-.3.8,0,.1-.2.3-.2.4,0,0,0,0,0,0,0,0,0,.1-.1.2-.2.3-.4.5-.6.8-.3.3-.2.8,0,1.1.3.3.8.4,1,.1h0Z"/>
    </g>
  </g>
</svg>