<?xml version="1.0" encoding="UTF-8"?>
<svg version="1.1" xmlns="http://www.w3.org/2000/svg" width="30" height="31">
<path d="M0 0 C2.47864653 1.8589849 3.96698838 3.48532676 4.69140625 6.5625 C5.10853475 13.88243246 1.88677055 19.17426672 -2.75 24.6875 C-4.984375 26.00390625 -4.984375 26.00390625 -6.75 26.6875 C-8.06431172 24.89716193 -9.3763953 23.10518797 -10.6875 21.3125 C-11.41839844 20.31476562 -12.14929688 19.31703125 -12.90234375 18.2890625 C-15.88174197 14.09396902 -16.29650833 10.77197933 -15.75 5.6875 C-14.48515069 2.7783466 -13.49549933 1.22734434 -10.9375 -0.625 C-6.8674824 -1.90414839 -3.86135114 -1.84291759 0 0 Z M-10.75 5.6875 C-10.47459296 9.50563447 -10.47459296 9.50563447 -8.75 12.6875 C-5.79182893 12.93755386 -5.79182893 12.93755386 -2.75 12.6875 C-0.53103864 10.86278109 -0.53103864 10.86278109 -0.375 8.25 C-0.5025967 5.55743614 -0.5025967 5.55743614 -2.625 3.875 C-6.38965606 1.77122161 -7.6132402 3.17809216 -10.75 5.6875 Z " fill="#FFFFFF" transform="translate(20.75,3.3125)"/>
<path d="M0 0 C1.65 0.33 3.3 0.66 5 1 C5.33 1.99 5.66 2.98 6 4 C5.01 5.485 5.01 5.485 4 7 C2.35 6.67 0.7 6.34 -1 6 C-1.33 5.01 -1.66 4.02 -2 3 C-1.34 2.01 -0.68 1.02 0 0 Z " fill="#FFFFFF" transform="translate(13,8)"/>
</svg>
