<svg xmlns="http://www.w3.org/2000/svg" version="1.1" width="1479" height="122">
<path d="M0 0 C1.12329712 0.07069702 1.12329712 0.07069702 2.26928711 0.14282227 C3.07817383 0.19116211 3.88706055 0.23950195 4.72045898 0.28930664 C5.99566406 0.37341797 5.99566406 0.37341797 7.29663086 0.45922852 C8.57763672 0.53753906 8.57763672 0.53753906 9.88452148 0.61743164 C12.00135081 0.74751612 14.1177833 0.88402822 16.23413086 1.02172852 C15.69518661 5.61980981 14.46841558 8.8895722 12.17163086 12.89672852 C11.6237793 13.86352539 11.07592773 14.83032227 10.51147461 15.82641602 C10.08995117 16.55086914 9.66842773 17.27532227 9.23413086 18.02172852 C6.34837267 17.6236929 5.41223573 17.23163782 3.48413086 14.95922852 C3.07163086 14.31985352 2.65913086 13.68047852 2.23413086 13.02172852 C1.32920898 13.58053711 1.32920898 13.58053711 0.40600586 14.15063477 C-0.39321289 14.6237207 -1.19243164 15.09680664 -2.01586914 15.58422852 C-2.80477539 16.05989258 -3.59368164 16.53555664 -4.40649414 17.02563477 C-7.07431539 18.15195003 -8.11088682 18.03865982 -10.76586914 17.02172852 C-9.53323565 13.32382806 -8.56534463 13.08624391 -5.20336914 11.33422852 C-4.37708008 10.89723633 -3.55079102 10.46024414 -2.69946289 10.01000977 C-2.06137695 9.68387695 -1.42329102 9.35774414 -0.76586914 9.02172852 C-0.99983398 8.17288086 -0.99983398 8.17288086 -1.23852539 7.30688477 C-1.43317383 6.5734082 -1.62782227 5.83993164 -1.82836914 5.08422852 C-2.0255957 4.35333008 -2.22282227 3.62243164 -2.42602539 2.86938477 C-2.53817383 2.2596582 -2.65032227 1.64993164 -2.76586914 1.02172852 C-1.76586914 0.02172852 -1.76586914 0.02172852 0 0 Z " fill="#53256a" transform="translate(1449.765869140625,41.978271484375)" />
<path d="M0 0 C0 0.99 0 1.98 0 3 C-3.63 3.66 -7.26 4.32 -11 5 C-11 4.01 -11 3.02 -11 2 C-7.12315913 0.80712589 -4.08378077 0 0 0 Z " fill="#53256a" transform="translate(347,107)" />
<path d="M0 0 C3.63 0 7.26 0 11 0 C11 0.99 11 1.98 11 3 C7.37 3 3.74 3 0 3 C0 2.01 0 1.02 0 0 Z " fill="#53256a" transform="translate(249,119)" />
<path d="M0 0 C0 0.99 0 1.98 0 3 C-3.3 3.66 -6.6 4.32 -10 5 C-10.33 4.01 -10.66 3.02 -11 2 C-7.12315913 0.80712589 -4.08378077 0 0 0 Z " fill="#53256a" transform="translate(1333,102)" />
<path d="M0 0 C3.3 0.99 6.6 1.98 10 3 C9.67 3.99 9.34 4.98 9 6 C4.545 5.01 4.545 5.01 0 4 C0 2.68 0 1.36 0 0 Z " fill="#53256a" transform="translate(77,94)" />
<path d="M0 0 C0 0.66 0 1.32 0 2 C-3.82320557 3.42258812 -6.91281305 4.24042276 -11 4 C-10.67 3.01 -10.34 2.02 -10 1 C-6.34742296 -0.62336757 -3.80637601 -1.46399077 0 0 Z " fill="#53256a" transform="translate(404,93)" />
<path d="M0 0 C0 0.66 0 1.32 0 2 C-4.95 3.485 -4.95 3.485 -10 5 C-10.33 4.01 -10.66 3.02 -11 2 C-3.57142857 -1.57142857 -3.57142857 -1.57142857 0 0 Z " fill="#53256a" transform="translate(1389,85)" />
<path d="M0 0 C3.95820859 0.56545837 6.6659053 1.80902348 10 4 C9.67 4.99 9.34 5.98 9 7 C4.545 5.02 4.545 5.02 0 3 C0 2.01 0 1.02 0 0 Z " fill="#53256a" transform="translate(22,72)" />
<path d="M0 0 C3.46941546 0.45822468 6.67395049 0.89131683 10 2 C10 2.99 10 3.98 10 5 C5.94393835 4.53199289 2.53411321 4.12046792 -1 2 C-0.67 1.34 -0.34 0.68 0 0 Z " fill="#53256a" transform="translate(873,25)" />
<path d="M0 0 C0 0.99 0 1.98 0 3 C-3.63 3.33 -7.26 3.66 -11 4 C-11 3.01 -11 2.02 -11 1 C-7.27569643 0.30710631 -3.78916254 -0.11144596 0 0 Z " fill="#53256a" transform="translate(651,4)" />
<path d="M0 0 C3.3 0 6.6 0 10 0 C10 0.99 10 1.98 10 3 C6.37 3 2.74 3 -1 3 C-0.67 2.01 -0.34 1.02 0 0 Z " fill="#53256a" transform="translate(1237,117)" />
<path d="M0 0 C0 0.99 0 1.98 0 3 C-2.75078884 3.91692961 -4.35948913 4.10886083 -7.1875 4.0625 C-9.0746875 4.0315625 -9.0746875 4.0315625 -11 4 C-11 3.01 -11 2.02 -11 1 C-9.54182203 0.83197949 -8.0834516 0.66562857 -6.625 0.5 C-5.81289063 0.4071875 -5.00078125 0.314375 -4.1640625 0.21875 C-2 0 -2 0 0 0 Z " fill="#53256a" transform="translate(289,116)" />
<path d="M0 0 C3.3 0.33 6.6 0.66 10 1 C10 1.99 10 2.98 10 4 C6.37 3.67 2.74 3.34 -1 3 C-0.67 2.01 -0.34 1.02 0 0 Z " fill="#53256a" transform="translate(162,115)" />
<path d="M0 0 C0.33 0.99 0.66 1.98 1 3 C-0.58272601 4.58272601 -2.38034003 4.34735747 -4.5625 4.5625 C-5.80193359 4.68818359 -5.80193359 4.68818359 -7.06640625 4.81640625 C-8.02353516 4.90728516 -8.02353516 4.90728516 -9 5 C-9.33 4.01 -9.66 3.02 -10 2 C-6.7 1.34 -3.4 0.68 0 0 Z " fill="#53256a" transform="translate(317,112)" />
<path d="M0 0 C0 0.66 0 1.32 0 2 C-3.87684087 3.19287411 -6.91621923 4 -11 4 C-11 3.01 -11 2.02 -11 1 C-9.5437328 0.63743142 -8.08488815 0.28520207 -6.625 -0.0625 C-5.40683594 -0.35833984 -5.40683594 -0.35833984 -4.1640625 -0.66015625 C-2 -1 -2 -1 0 0 Z " fill="#53256a" transform="translate(1305,109)" />
<path d="M0 0 C3.63 0.66 7.26 1.32 11 2 C10.67 2.99 10.34 3.98 10 5 C6.7 4.34 3.4 3.68 0 3 C0 2.01 0 1.02 0 0 Z " fill="#53256a" transform="translate(104,103)" />
<path d="M0 0 C0 0.99 0 1.98 0 3 C-3.61973402 4.31626692 -6.09567131 5 -10 5 C-10 4.01 -10 3.02 -10 2 C-6.38026598 0.68373308 -3.90432869 0 0 0 Z " fill="#53256a" transform="translate(1361,94)" />
<path d="M0 0 C3.3 0.99 6.6 1.98 10 3 C10 3.99 10 4.98 10 6 C6.0507432 5.44894091 2.65079826 4.61064629 -1 3 C-0.67 2.01 -0.34 1.02 0 0 Z " fill="#53256a" transform="translate(49,84)" />
<path d="M0 0 C-0.33 1.32 -0.66 2.64 -1 4 C-3.97 4.66 -6.94 5.32 -10 6 C-10 5.01 -10 4.02 -10 3 C-8.70990357 2.49596232 -7.41786211 1.99690074 -6.125 1.5 C-5.04605469 1.08234375 -5.04605469 1.08234375 -3.9453125 0.65625 C-2 0 -2 0 0 0 Z " fill="#53256a" transform="translate(431,82)" />
<path d="M0 0 C-0.24609375 1.890625 -0.24609375 1.890625 -1 4 C-2.84765625 5.046875 -2.84765625 5.046875 -5.0625 5.75 C-6.16271484 6.11351563 -6.16271484 6.11351563 -7.28515625 6.484375 C-8.13400391 6.73960938 -8.13400391 6.73960938 -9 7 C-9 5.68 -9 4.36 -9 3 C-2.25 0 -2.25 0 0 0 Z " fill="#53256a" transform="translate(1415,72)" />
<path d="M0 0 C3.91211733 1.15585285 6.8745041 2.35534962 10 5 C9.34 5.66 8.68 6.32 8 7 C3.545 5.02 3.545 5.02 -1 3 C-0.67 2.01 -0.34 1.02 0 0 Z " fill="#53256a" transform="translate(981,71)" />
<path d="M0 0 C-0.24609375 1.890625 -0.24609375 1.890625 -1 4 C-2.84765625 5.046875 -2.84765625 5.046875 -5.0625 5.75 C-6.16271484 6.11351563 -6.16271484 6.11351563 -7.28515625 6.484375 C-8.13400391 6.73960938 -8.13400391 6.73960938 -9 7 C-9 5.68 -9 4.36 -9 3 C-2.25 0 -2.25 0 0 0 Z " fill="#53256a" transform="translate(458,71)" />
<path d="M0 0 C4.455 1.98 4.455 1.98 9 4 C9 4.99 9 5.98 9 7 C5.04179141 6.43454163 2.3340947 5.19097652 -1 3 C-0.67 2.01 -0.34 1.02 0 0 Z " fill="#53256a" transform="translate(955,58)" />
<path d="M0 0 C-0.1875 1.8125 -0.1875 1.8125 -1 4 C-3.3125 5.8125 -3.3125 5.8125 -6 7 C-8.3125 6.6875 -8.3125 6.6875 -10 6 C-4.4 0 -4.4 0 0 0 Z " fill="#53256a" transform="translate(484,58)" />
<path d="M0 0 C4.95 1.98 4.95 1.98 10 4 C9.01 5.485 9.01 5.485 8 7 C3.545 5.02 3.545 5.02 -1 3 C-0.67 2.01 -0.34 1.02 0 0 Z " fill="#53256a" transform="translate(901,34)" />
<path d="M0 0 C0.33 0.99 0.66 1.98 1 3 C-0.26839526 3.50615298 -1.53983102 4.00469099 -2.8125 4.5 C-3.87404297 4.91765625 -3.87404297 4.91765625 -4.95703125 5.34375 C-7 6 -7 6 -10 6 C-10 5.01 -10 4.02 -10 3 C-8.70990357 2.49596232 -7.41786211 1.99690074 -6.125 1.5 C-5.04605469 1.08234375 -5.04605469 1.08234375 -3.9453125 0.65625 C-2 0 -2 0 0 0 Z " fill="#53256a" transform="translate(537,33)" />
<path d="M0 0 C-0.33 1.32 -0.66 2.64 -1 4 C-3.97 4.66 -6.94 5.32 -10 6 C-10 5.01 -10 4.02 -10 3 C-8.70990357 2.49596232 -7.41786211 1.99690074 -6.125 1.5 C-5.04605469 1.08234375 -5.04605469 1.08234375 -3.9453125 0.65625 C-2 0 -2 0 0 0 Z " fill="#53256a" transform="translate(565,23)" />
<path d="M0 0 C7.42857143 -0.14285714 7.42857143 -0.14285714 11 1 C10.67 1.99 10.34 2.98 10 4 C6.7 3.67 3.4 3.34 0 3 C0 2.01 0 1.02 0 0 Z " fill="#53256a" transform="translate(787,5)" />
<path d="M0 0 C3.63 0 7.26 0 11 0 C11 0.99 11 1.98 11 3 C7.7 3 4.4 3 1 3 C0.67 2.01 0.34 1.02 0 0 Z " fill="#53256a" transform="translate(728,0)" />
<path d="M0 0 C3.63 0 7.26 0 11 0 C10.67 0.99 10.34 1.98 10 3 C6.7 3 3.4 3 0 3 C0 2.01 0 1.02 0 0 Z " fill="#53256a" transform="translate(699,0)" />
<path d="M0 0 C3.3 0.33 6.6 0.66 10 1 C10 1.99 10 2.98 10 4 C6.7 3.67 3.4 3.34 0 3 C0 2.01 0 1.02 0 0 Z " fill="#53256a" transform="translate(1091,108)" />
<path d="M0 0 C4.95 1.98 4.95 1.98 10 4 C9.67 4.66 9.34 5.32 9 6 C5.28111761 5.49287967 2.26545761 4.88391785 -1 3 C-0.67 2.01 -0.34 1.02 0 0 Z " fill="#53256a" transform="translate(1008,82)" />
<path d="M0 0 C3.55780196 0.60990891 6.6828589 1.5783681 10 3 C9.67 3.99 9.34 4.98 9 6 C6.03 5.01 3.06 4.02 0 3 C0 2.01 0 1.02 0 0 Z " fill="#53256a" transform="translate(928,46)" />
<path d="M0 0 C0 0.99 0 1.98 0 3 C-3.3 3.33 -6.6 3.66 -10 4 C-10 3.01 -10 2.02 -10 1 C-6.59437148 0.22157062 -3.49234244 -0.09978121 0 0 Z " fill="#53256a" transform="translate(622,9)" />
<path d="M0 0 C3.63 0 7.26 0 11 0 C11 0.66 11 1.32 11 2 C8.24921116 2.91692961 6.64051087 3.10886083 3.8125 3.0625 C1.9253125 3.0315625 1.9253125 3.0315625 0 3 C0 2.01 0 1.02 0 0 Z " fill="#53256a" transform="translate(1207,119)" />
<path d="M0 0 C0 0.66 0 1.32 0 2 C-2.40545638 3.20272819 -3.94996953 3.10071472 -6.625 3.0625 C-7.85089844 3.04896484 -7.85089844 3.04896484 -9.1015625 3.03515625 C-10.04128906 3.01775391 -10.04128906 3.01775391 -11 3 C-11 2.34 -11 1.68 -11 1 C-9.5437328 0.63743142 -8.08488815 0.28520207 -6.625 -0.0625 C-5.40683594 -0.35833984 -5.40683594 -0.35833984 -4.1640625 -0.66015625 C-2 -1 -2 -1 0 0 Z " fill="#53256a" transform="translate(1276,114)" />
<path d="M0 0 C3.3 0.33 6.6 0.66 10 1 C10 1.99 10 2.98 10 4 C6.7 3.67 3.4 3.34 0 3 C0 2.01 0 1.02 0 0 Z " fill="#53256a" transform="translate(1120,113)" />
<path d="M0 0 C4.95 0.99 4.95 0.99 10 2 C10 2.99 10 3.98 10 5 C6.7 4.34 3.4 3.68 0 3 C0 2.01 0 1.02 0 0 Z " fill="#53256a" transform="translate(1063,101)" />
<path d="M0 0 C0 0.99 0 1.98 0 3 C-3.61973402 4.31626692 -6.09567131 5 -10 5 C-10 4.01 -10 3.02 -10 2 C-8.7090864 1.66376204 -7.41723903 1.33110751 -6.125 1 C-5.40570313 0.814375 -4.68640625 0.62875 -3.9453125 0.4375 C-2 0 -2 0 0 0 Z " fill="#53256a" transform="translate(375,100)" />
<path d="M0 0 C3.3 0.99 6.6 1.98 10 3 C10 3.99 10 4.98 10 6 C5.545 5.01 5.545 5.01 1 4 C0.67 2.68 0.34 1.36 0 0 Z " fill="#53256a" transform="translate(1035,92)" />
<path d="M0 0 C0.33 1.32 0.66 2.64 1 4 C-3.455 5.485 -3.455 5.485 -8 7 C-8 6.01 -8 5.02 -8 4 C-5.36 2.68 -2.72 1.36 0 0 Z " fill="#53256a" transform="translate(509,44)" />
<path d="M0 0 C1.48206495 0.254496 2.96068615 0.52911762 4.4375 0.8125 C5.67306641 1.03873047 5.67306641 1.03873047 6.93359375 1.26953125 C7.61550781 1.51058594 8.29742188 1.75164063 9 2 C9.33 2.99 9.66 3.98 10 5 C8.54077307 4.88590407 7.08259402 4.75834456 5.625 4.625 C4.40683594 4.52058594 4.40683594 4.52058594 3.1640625 4.4140625 C1 4 1 4 -1 2 C-0.67 1.34 -0.34 0.68 0 0 Z " fill="#53256a" transform="translate(845,16)" />
<path d="M0 0 C0 0.99 0 1.98 0 3 C-3.61973402 4.31626692 -6.09567131 5 -10 5 C-10 4.01 -10 3.02 -10 2 C-8.7090864 1.66376204 -7.41723903 1.33110751 -6.125 1 C-5.40570312 0.814375 -4.68640625 0.62875 -3.9453125 0.4375 C-2 0 -2 0 0 0 Z " fill="#53256a" transform="translate(593,15)" />
<path d="M0 0 C3.3 0.33 6.6 0.66 10 1 C10 1.99 10 2.98 10 4 C6.7 3.67 3.4 3.34 0 3 C0 2.01 0 1.02 0 0 Z " fill="#53256a" transform="translate(816,10)" />
<path d="M0 0 C0 0.99 0 1.98 0 3 C-3.3 3.33 -6.6 3.66 -10 4 C-10 3.01 -10 2.02 -10 1 C-6.78548731 -0.60725635 -3.56387464 -0.05748185 0 0 Z " fill="#53256a" transform="translate(680,1)" />
<path d="M0 0 C3.3 0.33 6.6 0.66 10 1 C10 1.99 10 2.98 10 4 C2.25 4.125 2.25 4.125 0 3 C0 2.01 0 1.02 0 0 Z " fill="#53256a" transform="translate(1149,116)" />
<path d="M0 0 C2.97 0.33 5.94 0.66 9 1 C9.33 1.99 9.66 2.98 10 4 C6.7 3.67 3.4 3.34 0 3 C0 2.01 0 1.02 0 0 Z " fill="#53256a" transform="translate(133,110)" />
<path d="M0 0 C3.3 0.33 6.6 0.66 10 1 C10 1.99 10 2.98 10 4 C6.7 3.67 3.4 3.34 0 3 C0 2.01 0 1.02 0 0 Z " fill="#53256a" transform="translate(758,1)" />
<path d="M0 0 C6.625 -0.125 6.625 -0.125 10 1 C9.67 1.99 9.34 2.98 9 4 C6.03 3.67 3.06 3.34 0 3 C0 2.01 0 1.02 0 0 Z " fill="#53256a" transform="translate(191,118)" />
<path d="M0 0 C3.63 0.33 7.26 0.66 11 1 C10.67 1.99 10.34 2.98 10 4 C6.7 3.67 3.4 3.34 0 3 C0 2.01 0 1.02 0 0 Z " fill="#53256a" transform="translate(1178,118)" />
<path d="M0 0 C3.3 0.33 6.6 0.66 10 1 C10 1.66 10 2.32 10 3 C6.7 3 3.4 3 0 3 C0 2.01 0 1.02 0 0 Z " fill="#53256a" transform="translate(220,119)" />
<path d="M0 0 C1.65 0.33 3.3 0.66 5 1 C5 1.99 5 2.98 5 4 C3.35 3.67 1.7 3.34 0 3 C0 2.01 0 1.02 0 0 Z " fill="#53256a" transform="translate(1,61)" />
<path d="M0 0 C0.66 0.33 1.32 0.66 2 1 C1.67 1.99 1.34 2.98 1 4 C-1.0625 4.6875 -1.0625 4.6875 -3 5 C-3 4.01 -3 3.02 -3 2 C-2.01 1.34 -1.02 0.68 0 0 Z " fill="#53256a" transform="translate(1435,60)" />
</svg>